<?xml version="1.0" standalone="no"?>
<!DOCTYPE svg PUBLIC "-//W3C//DTD SVG 1.1//EN" "http://www.w3.org/Graphics/SVG/1.1/DTD/svg11.dtd" >
<svg xmlns="http://www.w3.org/2000/svg" xmlns:xlink="http://www.w3.org/1999/xlink" version="1.1">
<metadata>
Created by FontForge 20170731 at Wed Aug 21 13:33:12 2019
 By Aleksey,,,
</metadata>
<defs>
<font id="KozGoPro-Regular-AlphaNum" horiz-adv-x="1000" vert-adv-y="1000" >
  <font-face 
    font-family="KozGoPro-Regular-AlphaNum"
    font-weight="400"
    font-stretch="normal"
    units-per-em="1000"
    panose-1="2 0 5 3 0 0 0 0 0 0"
    ascent="800"
    descent="-200"
    bbox="14 -86 972 846"
    underline-thickness="50"
    underline-position="-200"
    unicode-range="U+2156-32BF"
  />
<missing-glyph horiz-adv-x="364" 
d="M33 0v666h265v-666h-265zM66 33h199v600h-199v-600z" />
    <glyph glyph-name=".notdef" horiz-adv-x="364" 
d="M33 0v666h265v-666h-265zM66 33h199v600h-199v-600z" />
    <glyph glyph-name=".null" horiz-adv-x="0" vert-adv-y="0" 
 />
    <glyph glyph-name="nonmarkingreturn" horiz-adv-x="333" 
 />
    <glyph glyph-name="Japan1.9785" unicode="&#x2156;" 
d="M380 391h-344v37l58 42q123 91 163.5 129.5t40.5 77.5q0 34 -22.5 55.5t-72.5 21.5q-67 0 -118 -47l-29 47q64 56 159 56q73 0 112.5 -36t39.5 -88t-39.5 -96t-139.5 -117l-34 -24v-1h226v-57zM803 810l-549 -860h-58l550 860h57zM954 369v-57h-213l-18 -92q19 3 47 3
q33 0 65 -6.5t62.5 -21t49 -41.5t18.5 -64q0 -65 -52 -102.5t-145 -37.5q-88 0 -140 28l19 52q50 -25 121 -25q53 0 89.5 22t36.5 60q0 83 -155 83q-45 0 -83 -7l34 206h264z" />
    <glyph glyph-name="Japan1.9786" unicode="&#x2157;" 
d="M35 416l20 53q62 -28 134 -28q68 0 97 20t29 47q0 71 -143 71h-52v55h53q48 -1 85 14.5t37 46.5q0 25 -24 41.5t-76 16.5q-65 0 -118 -30l-22 51q60 36 153 36q78 0 119 -30.5t41 -73.5q0 -35 -26.5 -61.5t-75.5 -35.5v-3q55 -3 89.5 -30t34.5 -71q0 -55 -53 -88
t-150 -33q-94 0 -152 32zM803 810l-549 -860h-58l550 860h57zM954 369v-57h-213l-18 -92q19 3 47 3q33 0 65 -6.5t62.5 -21t49 -41.5t18.5 -64q0 -65 -52 -102.5t-145 -37.5q-88 0 -140 28l19 52q50 -25 121 -25q53 0 89.5 22t36.5 60q0 83 -155 83q-45 0 -83 -7l34 206h264
z" />
    <glyph glyph-name="Japan1.9787" unicode="&#x2158;" 
d="M348 383h-68v112h-245v46l226 265h87v-258h72v-53h-72v-112zM107 548h173v138q0 36 3 70h-3q-33 -41 -85 -103l-88 -103v-2zM803 810l-549 -860h-58l550 860h57zM954 369v-57h-213l-18 -92q19 3 47 3q33 0 65 -6.5t62.5 -21t49 -41.5t18.5 -64q0 -65 -52 -102.5
t-145 -37.5q-88 0 -140 28l19 52q50 -25 121 -25q53 0 89.5 22t36.5 60q0 83 -155 83q-45 0 -83 -7l34 206h264z" />
    <glyph glyph-name="Japan1.9788" unicode="&#x2159;" 
d="M909 376v-55q-66 0 -114.5 -14t-74 -36.5t-37.5 -43t-16 -42.5h2q46 48 131 48q72 0 118.5 -36.5t46.5 -100.5q0 -63 -50 -104.5t-131 -41.5q-85 0 -136 49t-51 130q0 32 8 63t29.5 65.5t55 60t90 42t129.5 16.5zM787 3q51 0 79.5 24.5t28.5 65.5q0 44 -31 66t-84 22
q-46 0 -80.5 -24t-34.5 -46q0 -46 31.5 -77t90.5 -31zM216 384v364h-2l-98 -45l-15 51l123 54h59v-424h-67zM803 810l-549 -860h-58l550 860h57z" />
    <glyph glyph-name="Japan1.9789" unicode="&#x215a;" 
d="M909 376v-55q-66 0 -114.5 -14t-74 -36.5t-37.5 -43t-16 -42.5h2q46 48 131 48q72 0 118.5 -36.5t46.5 -100.5q0 -63 -50 -104.5t-131 -41.5q-85 0 -136 49t-51 130q0 32 8 63t29.5 65.5t55 60t90 42t129.5 16.5zM787 3q51 0 79.5 24.5t28.5 65.5q0 44 -31 66t-84 22
q-46 0 -80.5 -24t-34.5 -46q0 -46 31.5 -77t90.5 -31zM803 810l-549 -860h-58l550 860h57zM360 801v-57h-212l-18 -92q20 3 47 3q33 0 64.5 -6.5t62 -20.5t49.5 -41.5t19 -64.5q0 -65 -52 -102.5t-145 -37.5q-88 0 -140 28l19 51q48 -24 121 -24q50 0 87.5 21t37.5 63
q0 81 -154 81q-45 0 -83 -7l34 206h263z" />
    <glyph glyph-name="uni2160" unicode="&#x2160;" 
d="M459 771h82v-779h-82v779z" />
    <glyph glyph-name="uni2161" unicode="&#x2161;" 
d="M310 771h81v-779h-81v779zM609 771h81v-779h-81v779z" />
    <glyph glyph-name="uni2162" unicode="&#x2162;" 
d="M216 771h79v-779h-79v779zM460 771h79v-779h-79v779zM704 771h79v-779h-79v779z" />
    <glyph glyph-name="uni2163" unicode="&#x2163;" 
d="M146 771h79v-779h-79v779zM642 -8h-87l-243 779h86l123 -413q37 -128 80 -283h2q23 80 88 281l137 415h86z" />
    <glyph glyph-name="uni2164" unicode="&#x2164;" 
d="M531 -8h-93l-270 779h90l138 -416q25 -76 91 -287h2q36 116 101 285l153 418h89z" />
    <glyph glyph-name="uni2165" unicode="&#x2165;" 
d="M417 -8h-87l-244 779h87l123 -413q47 -163 79 -283h2q28 98 89 281l137 415h85zM776 771h79v-779h-79v779z" />
    <glyph glyph-name="uni2166" unicode="&#x2166;" 
d="M371 -8h-82l-241 779h80l124 -410q63 -219 79 -277h2q29 126 71 277l108 410h79zM640 771h76v-779h-76v779zM839 771h75v-779h-75v779z" />
    <glyph glyph-name="uni2167" unicode="&#x2167;" 
d="M319 -8h-75l-210 779h75l106 -410q36 -138 67 -274h2q34 167 60 274l93 410h74zM542 771h65v-779h-65v779zM700 771h65v-779h-65v779zM859 771h66v-779h-66v779z" />
    <glyph glyph-name="uni2168" unicode="&#x2168;" 
d="M137 771h78v-779h-78v779zM897 -8h-92l-105 179q-91 154 -101 173h-2q-19 -37 -92 -172l-99 -180h-89l238 399l-220 380h90l111 -200q23 -41 71 -132h1q49 95 69 131l110 201h90l-227 -378z" />
    <glyph glyph-name="uni2169" unicode="&#x2169;" 
d="M827 -8h-98l-125 180q-67 97 -114 174h-2q-36 -63 -107 -173l-117 -181h-95l272 399l-251 380h97l127 -202q52 -79 83 -133h3q33 59 80 133l128 202h96l-259 -378z" />
    <glyph glyph-name="uni216A" unicode="&#x216a;" 
d="M683 -8h-91l-106 179q-18 31 -40.5 69t-36.5 62t-24 42h-1q-26 -51 -93 -172l-99 -180h-89l238 399l-220 380h91l110 -200q23 -41 71 -132h2q37 76 69 131l110 201h89l-227 -378zM785 771h79v-779h-79v779z" />
    <glyph glyph-name="uni216B" unicode="&#x216b;" 
d="M582 -8h-89l-93 177q-70 128 -89 172h-2q-14 -32 -82 -171l-86 -178h-88l215 399l-198 380h87l98 -199q28 -56 62 -130h2q16 38 59 129l97 200h88l-204 -377zM644 771h75v-779h-75v779zM839 771h75v-779h-75v779z" />
    <glyph glyph-name="uni2170" unicode="&#x2170;" 
d="M499 657q-26 0 -41.5 18.5t-15.5 41.5q0 24 17 42t42 18q24 0 40.5 -17.5t16.5 -42.5q0 -24 -16.5 -42t-42.5 -18zM541 -8h-82v561h82v-561z" />
    <glyph glyph-name="uni2171" unicode="&#x2171;" 
d="M349 659q-26 0 -41.5 18t-15.5 41q0 24 17 41.5t41 17.5t40.5 -17.5t16.5 -41.5t-16.5 -41.5t-41.5 -17.5zM650 659q-25 0 -40.5 18t-15.5 41q0 24 16.5 41.5t41.5 17.5q24 0 40 -17.5t16 -41.5t-16.5 -41.5t-41.5 -17.5zM389 -8h-80v561h80v-561zM691 -8h-80v561h80
v-561z" />
    <glyph glyph-name="uni2172" unicode="&#x2172;" 
d="M283 660q-26 0 -41 18t-15 40q0 24 16.5 41.5t40.5 17.5t40 -17.5t16 -41.5q0 -23 -16 -40.5t-41 -17.5zM499 660q-25 0 -40.5 18t-15.5 40q0 24 17 41.5t41 17.5t40 -17.5t16 -41.5q0 -23 -16.5 -40.5t-41.5 -17.5zM716 660q-25 0 -40.5 18t-15.5 40q0 24 16.5 41.5
t40.5 17.5t40 -17.5t16 -41.5q0 -23 -16 -40.5t-41 -17.5zM322 -8h-78v561h78v-561zM539 -8h-79v561h79v-561zM756 -8h-79v561h79v-561z" />
    <glyph glyph-name="uni2173" unicode="&#x2173;" 
d="M221 660q-27 0 -42 18t-15 40q0 24 17 41.5t41 17.5t40 -17.5t16 -41.5q0 -23 -16 -40.5t-41 -17.5zM260 -8h-79v561h79v-561zM353 553h89l117 -315q37 -103 53 -153h2q42 116 56 153l120 315h86l-231 -561h-68z" />
    <glyph glyph-name="uni2174" unicode="&#x2174;" 
d="M220 553h91l129 -324q34 -86 58 -157h3q22 65 60 157l132 324h87l-251 -561h-67z" />
    <glyph glyph-name="uni2175" unicode="&#x2175;" 
d="M780 660q-28 0 -43 18t-15 40q0 24 16 41.5t40 17.5t41 -17.5t17 -41.5q0 -23 -16 -40.5t-40 -17.5zM124 553h89l116 -315q33 -87 54 -153h2q18 52 56 153l119 315h87l-231 -561h-68zM819 -8h-79v561h79v-561z" />
    <glyph glyph-name="uni2176" unicode="&#x2176;" 
d="M665 664q-27 0 -41.5 17.5t-14.5 38.5q0 24 15 40.5t39 16.5q23 0 39 -17t16 -40t-15 -39.5t-38 -16.5zM853 664q-26 0 -41 16.5t-15 39.5q0 24 15.5 40.5t38.5 16.5t39 -17t16 -40t-15 -39.5t-38 -16.5zM81 553h86l110 -315q35 -98 52 -154h1q28 81 54 154l115 315h82
l-220 -561h-67zM701 -8h-76v561h76v-561zM889 -8h-76v561h76v-561z" />
    <glyph glyph-name="uni2177" unicode="&#x2177;" 
d="M580 667q-24 0 -37 16.5t-13 38.5q0 23 13.5 39t34.5 16t35.5 -16.5t14.5 -38.5t-13.5 -38.5t-34.5 -16.5zM730 667q-23 0 -37 16.5t-14 38.5q0 23 14 39t35 16t35.5 -16.5t14.5 -38.5t-13.5 -38.5t-34.5 -16.5zM879 667q-23 0 -36.5 16.5t-13.5 38.5q0 23 14 39t34 16
q21 0 35.5 -16.5t14.5 -38.5t-13.5 -38.5t-34.5 -16.5zM68 553h75l98 -315q24 -73 45 -154h2q16 61 47 154l101 315h73l-195 -561h-58zM612 -8h-66v561h66v-561zM761 -8h-65v561h65v-561zM911 -8h-65v561h65v-561z" />
    <glyph glyph-name="uni2178" unicode="&#x2178;" 
d="M229 660q-28 0 -43 18t-15 40q0 24 15.5 41.5t39.5 17.5q25 0 41.5 -17.5t16.5 -41.5q0 -23 -15.5 -40.5t-39.5 -17.5zM267 -8h-79v561h79v-561zM376 553h88l88 -129q8 -12 60 -95h4q27 46 62 98l84 126h84l-188 -269l201 -292h-88l-92 134l-71 108h-2q-41 -64 -70 -105
l-95 -137h-85l208 290z" />
    <glyph glyph-name="uni2179" unicode="&#x2179;" 
d="M246 553h95l96 -129q23 -30 67 -95h3q21 33 68 98l94 126h91l-209 -268l223 -293h-94l-102 134q-46 61 -78 108h-3q-37 -56 -76 -105l-105 -137h-92l230 290z" />
    <glyph glyph-name="uni217A" unicode="&#x217a;" 
d="M772 660q-26 0 -41 17.5t-15 40.5q0 24 16.5 41.5t41.5 17.5q24 0 39.5 -17.5t15.5 -41.5t-16 -41t-41 -17zM161 553h87l88 -129q21 -32 61 -95h4q19 32 61 98l85 126h83l-188 -269l202 -292h-88l-92 134q-38 57 -70 108h-3q-40 -63 -69 -105l-96 -137h-85l208 290z
M812 -8h-79v561h79v-561z" />
    <glyph glyph-name="uni217B" unicode="&#x217b;" 
d="M661 664q-27 0 -41.5 17t-14.5 39q0 24 15 40.5t39 16.5q23 0 39 -17t16 -40q0 -22 -15 -39t-38 -17zM849 664q-26 0 -41 17t-15 39q0 24 15.5 40.5t38.5 16.5q24 0 39.5 -16.5t15.5 -40.5q0 -22 -15 -39t-38 -17zM104 553h88l83 -129q41 -67 58 -95h2q47 79 59 98
l80 126h84l-180 -268l193 -293h-89l-87 134q-46 74 -66 108h-3q-40 -66 -66 -105l-90 -137h-85l199 290zM697 -8h-75v561h75v-561zM886 -8h-76v561h76v-561z" />
    <glyph glyph-name="uni2460" unicode="&#x2460;" 
d="M965 380q0 -95 -37 -181.5t-99.5 -148.5t-148.5 -98.5t-180 -36.5q-95 0 -181 37t-148 99t-99 148t-37 181t37 181t99 148t148 99t181 37t181 -37t148 -99t99 -148t37 -181zM500 814q-181 0 -307.5 -127.5t-126.5 -306.5q0 -180 127 -307t307 -127t307 127t127 307
t-127 307t-307 127zM478 123v454h-1l-86 -46l-13 52l104 54h62v-514h-66z" />
    <glyph glyph-name="uni2461" unicode="&#x2461;" 
d="M965 380q0 -95 -37 -181.5t-99.5 -148.5t-148.5 -98.5t-180 -36.5q-95 0 -181 37t-148 99t-99 148t-37 181t37 181t99 148t148 99t181 37t181 -37t148 -99t99 -148t37 -181zM500 814q-181 0 -307.5 -127.5t-126.5 -306.5q0 -180 127 -307t307 -127t307 127t127 307
t-127 307t-307 127zM675 128h-350v42l56 50q129 114 170.5 163.5t42.5 97.5q0 42 -27 72.5t-87 30.5q-62 0 -121 -47l-21 47q67 56 156 56q85 0 126 -46t41 -101q0 -36 -11 -66.5t-42 -66.5t-61 -64t-92 -81l-36 -29v-2h256v-56z" />
    <glyph glyph-name="uni2462" unicode="&#x2462;" 
d="M965 380q0 -95 -37 -181.5t-99.5 -148.5t-148.5 -98.5t-180 -36.5q-95 0 -181 37t-148 99t-99 148t-37 181t37 181t99 148t148 99t181 37t181 -37t148 -99t99 -148t37 -181zM500 814q-181 0 -307.5 -127.5t-126.5 -306.5q0 -180 127 -307t307 -127t307 127t127 307
t-127 307t-307 127zM329 158l18 52q55 -35 125 -35t99 31.5t29 64.5q0 55 -45 78.5t-105 23.5h-42v52h44q51 0 89 21t38 62q0 31 -23.5 53.5t-75.5 22.5q-64 0 -113 -35l-18 49q58 42 143 42q79 0 117.5 -36t38.5 -85q0 -40 -25.5 -70.5t-73.5 -46.5v-2q54 -11 87.5 -46
t33.5 -83q0 -61 -51.5 -106t-147.5 -45q-88 0 -142 38z" />
    <glyph glyph-name="uni2463" unicode="&#x2463;" 
d="M965 380q0 -95 -37 -181.5t-99.5 -148.5t-148.5 -98.5t-180 -36.5q-95 0 -181 37t-148 99t-99 148t-37 181t37 181t99 148t148 99t181 37t181 -37t148 -99t99 -148t37 -181zM500 814q-181 0 -307.5 -127.5t-126.5 -306.5q0 -180 127 -307t307 -127t307 127t127 307
t-127 307t-307 127zM606 123h-65v135h-266v45l264 334h67v-326h77v-53h-77v-135zM338 311h203v197q0 27 2 63l-2 1q-18 -31 -37 -60l-166 -199v-2z" />
    <glyph glyph-name="uni2464" unicode="&#x2464;" 
d="M965 380q0 -95 -37 -181.5t-99.5 -148.5t-148.5 -98.5t-180 -36.5q-95 0 -181 37t-148 99t-99 148t-37 181t37 181t99 148t148 99t181 37t181 -37t148 -99t99 -148t37 -181zM500 814q-181 0 -307.5 -127.5t-126.5 -306.5q0 -180 127 -307t307 -127t307 127t127 307
t-127 307t-307 127zM657 632v-56h-209l-19 -130q23 5 50 5q80 0 135.5 -42t55.5 -117q0 -74 -56 -123t-141 -49q-84 0 -138 34l17 52q53 -31 121 -31q54 0 91 31.5t37 75.5q0 116 -153 116q-32 0 -81 -7l30 241h260z" />
    <glyph glyph-name="uni2465" unicode="&#x2465;" 
d="M965 380q0 -95 -37 -181.5t-99.5 -148.5t-148.5 -98.5t-180 -36.5q-95 0 -181 37t-148 99t-99 148t-37 181t37 181t99 148t148 99t181 37t181 -37t148 -99t99 -148t37 -181zM500 814q-181 0 -307.5 -127.5t-126.5 -306.5q0 -180 127 -307t307 -127t307 127t127 307
t-127 307t-307 127zM631 640v-57q-6 1 -18 1q-23 0 -47 -4q-150 -15 -183 -180l3 1q49 59 137 59q74 0 118 -46.5t44 -110.5q0 -73 -53 -128t-137 -55q-80 0 -130.5 55.5t-50.5 161.5q0 124 67 205.5t174 92.5q50 6 76 5zM503 169q53 0 84.5 40.5t31.5 91.5q-1 45 -32 78
t-81 33q-48 0 -87.5 -26.5t-39.5 -64.5q0 -23 5.5 -46.5t17.5 -49t38.5 -41t62.5 -15.5z" />
    <glyph glyph-name="uni2466" unicode="&#x2466;" 
d="M965 380q0 -95 -37 -181.5t-99.5 -148.5t-148.5 -98.5t-180 -36.5q-95 0 -181 37t-148 99t-99 148t-37 181t37 181t99 148t148 99t181 37t181 -37t148 -99t99 -148t37 -181zM500 814q-181 0 -307.5 -127.5t-126.5 -306.5q0 -180 127 -307t307 -127t307 127t127 307
t-127 307t-307 127zM332 632h342v-49l-246 -460h-70l247 451v2h-273v56z" />
    <glyph glyph-name="uni2467" unicode="&#x2467;" 
d="M421 391v3q-88 33 -88 110q0 59 49 97.5t123 38.5t118 -35t44 -90q0 -80 -92 -116v-3q111 -33 111 -126q0 -70 -54.5 -110t-132.5 -40q-79 0 -132.5 37.5t-53.5 102.5q0 91 108 131zM504 593q-51 0 -79 -25t-28 -62q0 -70 116 -92q41 10 66.5 34t25.5 61q0 32 -24.5 58
t-76.5 26zM379 269v-5q0 -39 33 -68t88 -29q57 0 89 28.5t32 65.5q0 48 -34 74t-102 38q-51 -11 -78.5 -38t-27.5 -66zM965 380q0 -95 -37 -181.5t-99.5 -148.5t-148.5 -98.5t-180 -36.5q-95 0 -181 37t-148 99t-99 148t-37 181t37 181t99 148t148 99t181 37t181 -37
t148 -99t99 -148t37 -181zM500 814q-181 0 -307.5 -127.5t-126.5 -306.5q0 -180 127 -307t307 -127t307 127t127 307t-127 307t-307 127z" />
    <glyph glyph-name="uni2468" unicode="&#x2468;" 
d="M965 380q0 -95 -37 -181.5t-99.5 -148.5t-148.5 -98.5t-180 -36.5q-95 0 -181 37t-148 99t-99 148t-37 181t37 181t99 148t148 99t181 37t181 -37t148 -99t99 -148t37 -181zM500 814q-181 0 -307.5 -127.5t-126.5 -306.5q0 -180 127 -307t307 -127t307 127t127 307
t-127 307t-307 127zM368 120v57q6 -1 18 -1q22 0 46 4q64 6 116 48t68 132l-3 -1q-49 -59 -137 -59q-74 0 -118 46.5t-44 110.5q0 73 53 128t137 55q80 0 130.5 -55.5t50.5 -161.5q0 -122 -66.5 -204.5t-173.5 -93.5q-51 -6 -77 -5zM496 591q-54 0 -85 -40t-31 -92
q0 -44 31 -77.5t81 -33.5q44 0 85.5 25t41.5 66q0 23 -5.5 47t-18 49t-38 40.5t-61.5 15.5z" />
    <glyph glyph-name="uni2469" unicode="&#x2469;" 
d="M965 379q0 -95 -37 -181.5t-99.5 -148.5t-148.5 -98.5t-180 -36.5q-95 0 -181 37t-148 99t-99 148t-37 181t37 181t99 148t148 99t181 37t181 -37t148 -99t99 -148t37 -181zM500 813q-181 0 -307.5 -127.5t-126.5 -306.5q0 -180 127 -307t307 -127t307 127t127 307
t-127 307t-307 127zM624 136q-65 0 -104 65t-40 176q0 115 42 180t110 65q69 0 105.5 -64.5t36.5 -172.5q0 -123 -41 -186t-109 -63zM539 386v-15q0 -88 23.5 -137t63.5 -49q89 0 89 196q0 192 -87 192q-40 0 -64.5 -50t-24.5 -137zM305 138v425h-1l-78 -42l-12 46l96 53h53
v-482h-58z" />
    <glyph glyph-name="uni246A" unicode="&#x246a;" 
d="M965 380q0 -95 -37 -181.5t-99.5 -148.5t-148.5 -98.5t-180 -36.5q-95 0 -181 37t-148 99t-99 148t-37 181t37 181t99 148t148 99t181 37t181 -37t148 -99t99 -148t37 -181zM500 814q-181 0 -307.5 -127.5t-126.5 -306.5q0 -180 127 -307t307 -127t307 127t127 307
t-127 307t-307 127zM312 139v425h-2l-76 -42l-12 46l95 53h54v-482h-59zM653 139v425h-1l-78 -42l-11 46l95 53h54v-482h-59z" />
    <glyph glyph-name="uni246B" unicode="&#x246b;" 
d="M965 380q0 -95 -37 -181.5t-99.5 -148.5t-148.5 -98.5t-180 -36.5q-95 0 -181 37t-148 99t-99 148t-37 181t37 181t99 148t148 99t181 37t181 -37t148 -99t99 -148t37 -181zM500 814q-181 0 -307.5 -127.5t-126.5 -306.5q0 -180 127 -307t307 -127t307 127t127 307
t-127 307t-307 127zM305 139v425h-1l-78 -42l-12 46l96 53h54v-482h-59zM759 144h-276v39l46 50q67 74 92.5 104t47 70t21.5 75q0 39 -21 64.5t-67 25.5q-48 0 -90 -35l-15 45q50 41 116 41q70 0 103 -40.5t33 -92.5q0 -63 -37.5 -118.5t-124.5 -142.5l-31 -32v-2h203v-51z
" />
    <glyph glyph-name="uni246C" unicode="&#x246c;" 
d="M965 380q0 -95 -37 -181.5t-99.5 -148.5t-148.5 -98.5t-180 -36.5q-95 0 -181 37t-148 99t-99 148t-37 181t37 181t99 148t148 99t181 37t181 -37t148 -99t99 -148t37 -181zM500 814q-181 0 -307.5 -127.5t-126.5 -306.5q0 -180 127 -307t307 -127t307 127t127 307
t-127 307t-307 127zM305 139v425h-1l-78 -42l-12 46l96 53h54v-482h-59zM484 165l13 48q42 -25 96 -25q55 0 80.5 27.5t25.5 60.5q0 28 -11.5 47.5t-25.5 29t-38.5 14.5t-38.5 5.5t-38 0.5v47h25q43 0 76.5 21t33.5 61q0 32 -20 51.5t-61 19.5q-43 0 -84 -27l-14 44
q45 33 110 33q64 0 96.5 -33t32.5 -79q0 -37 -22 -66.5t-62 -42.5v-1q45 -11 73 -43.5t28 -79.5q0 -57 -43 -99t-123 -42q-64 0 -109 28z" />
    <glyph glyph-name="uni246D" unicode="&#x246d;" 
d="M965 380q0 -95 -37 -181.5t-99.5 -148.5t-148.5 -98.5t-180 -36.5q-95 0 -181 37t-148 99t-99 148t-37 181t37 181t99 148t148 99t181 37t181 -37t148 -99t99 -148t37 -181zM500 814q-181 0 -307.5 -127.5t-126.5 -306.5q0 -180 127 -307t307 -127t307 127t127 307
t-127 307t-307 127zM714 139h-54v127h-205v40l206 314h53v-306h63v-48h-63v-127zM506 314h154v170q0 34 3 67h-2q-17 -32 -34 -61l-121 -174v-2zM305 139v425h-1l-78 -42l-12 46l96 53h54v-482h-59z" />
    <glyph glyph-name="uni246E" unicode="&#x246e;" 
d="M965 380q0 -95 -37 -181.5t-99.5 -148.5t-148.5 -98.5t-180 -36.5q-95 0 -181 37t-148 99t-99 148t-37 181t37 181t99 148t148 99t181 37t181 -37t148 -99t99 -148t37 -181zM500 814q-181 0 -307.5 -127.5t-126.5 -306.5q0 -180 127 -307t307 -127t307 127t127 307
t-127 307t-307 127zM305 139v425h-1l-78 -42l-12 46l96 53h53v-482h-58zM742 616v-51h-158l-17 -123q4 0 14 0.5t18 0.5q59 0 104.5 -37.5t45.5 -106.5q0 -71 -46 -116.5t-117 -45.5q-61 0 -103 27l14 47q40 -23 87 -23q46 0 75.5 29t29.5 74q-1 51 -32.5 79t-90.5 28
q-27 0 -55 -4l28 222h203z" />
    <glyph glyph-name="uni246F" unicode="&#x246f;" 
d="M965 380q0 -95 -37 -181.5t-99.5 -148.5t-148.5 -98.5t-180 -36.5q-95 0 -181 37t-148 99t-99 148t-37 181t37 181t99 148t148 99t181 37t181 -37t148 -99t99 -148t37 -181zM500 814q-181 0 -307.5 -127.5t-126.5 -306.5q0 -180 127 -307t307 -127t307 127t127 307
t-127 307t-307 127zM736 623v-52q-164 0 -191 -174h2q39 51 103 51q58 0 91.5 -41.5t33.5 -102.5q0 -67 -40 -117t-107 -50q-64 0 -104 52t-40 144q0 127 67 208.5t185 81.5zM632 181q43 0 64.5 36t21.5 88q0 42 -23 70.5t-61 28.5q-32 0 -62 -20.5t-30 -59.5q0 -65 23 -104
t67 -39zM305 139v425h-1l-78 -42l-12 46l96 53h53v-482h-58z" />
    <glyph glyph-name="uni2470" unicode="&#x2470;" 
d="M965 380q0 -95 -37 -181.5t-99.5 -148.5t-148.5 -98.5t-180 -36.5q-95 0 -181 37t-148 99t-99 148t-37 181t37 181t99 148t148 99t181 37t181 -37t148 -99t99 -148t37 -181zM500 814q-181 0 -307.5 -127.5t-126.5 -306.5q0 -180 127 -307t307 -127t307 127t127 307
t-127 307t-307 127zM305 139v425h-1l-78 -42l-12 46l96 53h53v-482h-58zM496 616h272v-41l-193 -436h-57l190 424v2h-212v51z" />
    <glyph glyph-name="uni2471" unicode="&#x2471;" 
d="M569 393l-1 2q-72 35 -72 105q0 54 39 88.5t97 34.5q57 0 92 -33t35 -82q0 -72 -76 -109v-3q91 -36 91 -123q0 -61 -44 -98.5t-104 -37.5q-63 0 -104.5 35.5t-41.5 92.5q0 86 89 128zM631 581q-39 0 -59 -23t-20 -54q0 -67 86 -91q68 24 68 90q0 32 -18.5 55t-56.5 23z
M536 274v-4q0 -38 24.5 -64.5t65.5 -26.5q44 0 68 26t24 64q0 78 -101 108q-39 -13 -60 -40t-21 -63zM965 380q0 -95 -37 -181.5t-99.5 -148.5t-148.5 -98.5t-180 -36.5q-95 0 -181 37t-148 99t-99 148t-37 181t37 181t99 148t148 99t181 37t181 -37t148 -99t99 -148
t37 -181zM500 814q-181 0 -307.5 -127.5t-126.5 -306.5q0 -180 127 -307t307 -127t307 127t127 307t-127 307t-307 127zM305 139v425h-1l-78 -42l-12 46l96 53h53v-482h-58z" />
    <glyph glyph-name="uni2472" unicode="&#x2472;" 
d="M965 380q0 -95 -37 -181.5t-99.5 -148.5t-148.5 -98.5t-180 -36.5q-95 0 -181 37t-148 99t-99 148t-37 181t37 181t99 148t148 99t181 37t181 -37t148 -99t99 -148t37 -181zM500 814q-181 0 -307.5 -127.5t-126.5 -306.5q0 -180 127 -307t307 -127t307 127t127 307
t-127 307t-307 127zM524 137v52q165 0 192 174h-2q-40 -51 -104 -51q-58 0 -91.5 41.5t-33.5 102.5q0 67 40 117t107 50q64 0 104 -52t40 -144q0 -128 -68 -209t-184 -81zM629 579q-43 0 -65 -36t-22 -88q0 -42 23 -70.5t61 -28.5t65 23t27 57q0 64 -23 103.5t-66 39.5z
M305 139v425h-1l-78 -42l-12 46l96 53h53v-482h-58z" />
    <glyph glyph-name="uni2473" unicode="&#x2473;" 
d="M672 137q-45 0 -76.5 35.5t-44.5 88t-13 117.5q0 116 38.5 180.5t101.5 64.5q64 0 97.5 -64.5t33.5 -175.5q0 -122 -37.5 -184t-99.5 -62zM674 187h1q74 0 74 194q0 192 -74 192q-19 0 -34.5 -14t-29 -61t-13.5 -123q0 -88 20 -138t56 -50zM468 144h-248v40l43 54
q38 47 55.5 70.5t40.5 58.5t31.5 63.5t8.5 56.5q0 85 -75 85q-36 0 -77 -28l-13 45q44 34 100 34q65 0 95 -39t30 -92q0 -45 -21.5 -92.5t-45.5 -79t-72 -86.5l-31 -37v-2h179v-51zM965 380q0 -95 -37 -181.5t-99.5 -148.5t-148.5 -98.5t-180 -36.5q-95 0 -181 37t-148 99
t-99 148t-37 181t37 181t99 148t148 99t181 37t181 -37t148 -99t99 -148t37 -181zM500 814q-181 0 -307.5 -127.5t-126.5 -306.5q0 -180 127 -307t307 -127t307 127t127 307t-127 307t-307 127z" />
    <glyph glyph-name="uni2474" unicode="&#x2474;" 
d="M188 845v-5q-105 -139 -105 -460v-1q0 -320 105 -459v-5h-48q-105 143 -105 465t105 465h48zM812 -85v5q105 139 105 460v1q0 320 -105 459v5h48q105 -143 105 -465t-105 -465h-48zM489 31v618h-3l-116 -65l-15 57l140 80h64v-690h-70z" />
    <glyph glyph-name="uni2475" unicode="&#x2475;" 
d="M188 845v-5q-105 -139 -105 -460v-1q0 -320 105 -459v-5h-48q-105 143 -105 465t105 465h48zM812 -85v5q105 139 105 460v1q0 320 -105 459v5h48q105 -143 105 -465t-105 -465h-48zM699 39h-400v46l68 72q132 137 186.5 216.5t54.5 158.5q0 61 -31 99.5t-100 38.5
q-66 0 -133 -53l-23 53q74 63 170 63t143.5 -57t47.5 -135q0 -91 -55.5 -177t-174.5 -208l-52 -52v-2h299v-63z" />
    <glyph glyph-name="uni2476" unicode="&#x2476;" 
d="M188 845v-5q-105 -139 -105 -460v-1q0 -320 105 -459v-5h-48q-105 143 -105 465t105 465h48zM812 -85v5q105 139 105 460v1q0 320 -105 459v5h48q105 -143 105 -465t-105 -465h-48zM303 70l21 58q63 -39 140 -39q82 0 119.5 43t37.5 99q0 72 -53 109t-129 37h-42v57h42
q59 1 107 33t48 93q0 48 -29.5 79.5t-89.5 31.5q-66 0 -125 -43l-20 54q27 21 70 36t89 15q89 0 134.5 -47.5t45.5 -113.5q0 -54 -31 -96.5t-89 -64.5v-3q64 -13 105.5 -60t41.5 -117q0 -85 -61.5 -144.5t-172.5 -59.5q-92 0 -159 43z" />
    <glyph glyph-name="uni2477" unicode="&#x2477;" 
d="M629 31h-69v200h-299v48l296 450h72v-439h97v-59h-97v-200zM344 290h217v239q0 57 4 104h-3q-26 -51 -54 -96l-164 -245v-2zM188 845v-5q-105 -139 -105 -460v-1q0 -320 105 -459v-5h-48q-105 143 -105 465t105 465h48zM812 -85v5q105 139 105 460v1q0 320 -105 459v5h48
q105 -143 105 -465t-105 -465h-48z" />
    <glyph glyph-name="uni2478" unicode="&#x2478;" 
d="M188 845v-5q-105 -139 -105 -460v-1q0 -320 105 -459v-5h-48q-105 143 -105 465t105 465h48zM812 -85v5q105 139 105 460v1q0 320 -105 459v5h48q105 -143 105 -465t-105 -465h-48zM682 721v-63h-236l-28 -191q39 3 49 3q90 0 157 -55t67 -156t-66 -166.5t-166 -65.5
q-90 0 -150 40l20 58q58 -36 130 -36q67 0 112.5 44.5t44.5 116.5q-1 75 -47.5 118.5t-135.5 43.5q-42 0 -84 -6l42 315h291z" />
    <glyph glyph-name="uni2479" unicode="&#x2479;" 
d="M656 733v-64q-116 6 -193.5 -66.5t-96.5 -202.5h2q60 74 155 74q85 0 135.5 -59.5t50.5 -147.5q0 -98 -59.5 -169t-153.5 -71q-93 0 -149 77t-56 208q0 174 80.5 283.5t203.5 130.5q45 9 81 7zM504 85q58 0 94.5 50t36.5 128q0 71 -35 113t-94 42q-53 0 -96.5 -34.5
t-43.5 -78.5q0 -103 35 -161.5t103 -58.5zM188 845v-5q-105 -139 -105 -460v-1q0 -320 105 -459v-5h-48q-105 143 -105 465t105 465h48zM812 -85v5q105 139 105 460v1q0 320 -105 459v5h48q105 -143 105 -465t-105 -465h-48z" />
    <glyph glyph-name="uni247A" unicode="&#x247a;" 
d="M188 845v-5q-105 -139 -105 -460v-1q0 -320 105 -459v-5h-48q-105 143 -105 465t105 465h48zM812 -85v5q105 139 105 460v1q0 320 -105 459v5h48q105 -143 105 -465t-105 -465h-48zM316 721h395v-50l-285 -640h-77l282 624v3h-315v63z" />
    <glyph glyph-name="uni247B" unicode="&#x247b;" 
d="M418 398v3q-56 26 -82.5 66.5t-26.5 87.5q0 78 56.5 128t141.5 50q86 0 136 -48.5t50 -117.5q0 -107 -114 -161v-4q66 -27 102 -73t36 -106q0 -87 -63.5 -141.5t-155.5 -54.5q-94 0 -154.5 52t-60.5 132q0 125 135 187zM505 678q-59 0 -91.5 -34t-32.5 -82
q-1 -99 134 -135q49 17 78.5 51t29.5 82t-29.5 83t-88.5 35zM357 222v-4q0 -56 39 -95.5t103 -39.5q67 0 105.5 37.5t38.5 94.5q0 62 -39 99t-116 60q-62 -19 -96.5 -59.5t-34.5 -92.5zM188 845v-5q-105 -139 -105 -460v-1q0 -320 105 -459v-5h-48q-105 143 -105 465
t105 465h48zM812 -85v5q105 139 105 460v1q0 320 -105 459v5h48q105 -143 105 -465t-105 -465h-48z" />
    <glyph glyph-name="uni247C" unicode="&#x247c;" 
d="M344 27v64q116 -6 193.5 66.5t96.5 202.5h-2q-60 -74 -155 -74q-85 0 -135.5 59.5t-50.5 147.5q0 98 59.5 169t153.5 71q93 0 149 -77t56 -208q0 -174 -80.5 -283.5t-203.5 -130.5q-45 -9 -81 -7zM496 675q-58 0 -94.5 -50t-36.5 -128q0 -71 35 -113t94 -42
q53 0 96.5 34.5t43.5 78.5q0 103 -35 161.5t-103 58.5zM188 845v-5q-105 -139 -105 -460v-1q0 -320 105 -459v-5h-48q-105 143 -105 465t105 465h48zM812 -85v5q105 139 105 460v1q0 320 -105 459v5h48q105 -143 105 -465t-105 -465h-48z" />
    <glyph glyph-name="uni247D" unicode="&#x247d;" 
d="M637 714q78 0 115 -91.5t37 -239.5q0 -173 -46 -255t-115 -82q-74 0 -114.5 90t-40.5 242q0 162 44.5 249t119.5 87zM540 388v-15q0 -118 23 -190t68 -72q26 0 45 24t28.5 65t13.5 85.5t4 95.5q0 120 -22.5 194t-68.5 74q-44 0 -67.5 -72t-23.5 -189zM188 845v-5
q-105 -139 -105 -460v-1q0 -320 105 -459v-5h-48q-105 143 -105 465t105 465h48zM812 -85v5q105 139 105 460v1q0 320 -105 459v5h48q105 -143 105 -465t-105 -465h-48zM292 48v597h-2l-94 -56l-9 52l114 71h56v-664h-65z" />
    <glyph glyph-name="uni247E" unicode="&#x247e;" 
d="M188 845v-5q-105 -139 -105 -460v-1q0 -320 105 -459v-5h-48q-105 143 -105 465t105 465h48zM812 -85v5q105 139 105 460v1q0 320 -105 459v5h48q105 -143 105 -465t-105 -465h-48zM322 48v597h-2l-94 -56l-10 52l114 71h56v-664h-64zM674 48v597h-2l-93 -56l-10 52
l113 71h57v-664h-65z" />
    <glyph glyph-name="uni247F" unicode="&#x247f;" 
d="M188 845v-5q-105 -139 -105 -460v-1q0 -320 105 -459v-5h-48q-105 143 -105 465t105 465h48zM812 -85v5q105 139 105 460v1q0 320 -105 459v5h48q105 -143 105 -465t-105 -465h-48zM292 48v597h-2l-94 -56l-9 52l114 71h56v-664h-65zM775 55h-297v47l50 75q6 9 32.5 48.5
t35 53t29.5 47.5t29 53.5t20 48.5t16 54.5t4 51.5q0 119 -92 119q-41 0 -89 -33l-13 55q51 39 114 39q72 0 110.5 -48t38.5 -127q0 -86 -44.5 -172t-125.5 -193l-39 -53v-2h221v-64z" />
    <glyph glyph-name="uni2480" unicode="&#x2480;" 
d="M188 845v-5q-105 -139 -105 -460v-1q0 -320 105 -459v-5h-48q-105 143 -105 465t105 465h48zM812 -85v5q105 139 105 460v1q0 320 -105 459v5h48q105 -143 105 -465t-105 -465h-48zM292 48v597h-2l-94 -56l-9 52l114 71h56v-664h-65zM473 76l14 59q44 -28 94 -28
q58 0 88 37t30 95q0 136 -156 136v57h18q44 0 81.5 30.5t37.5 87.5q0 48 -23 75t-66 27q-37 0 -80 -30l-14 55q45 37 111 37q69 0 106.5 -43.5t37.5 -106.5q0 -49 -25.5 -89t-71.5 -62v-2q50 -16 83 -59t33 -113q0 -81 -49.5 -137t-138.5 -56q-68 0 -110 30z" />
    <glyph glyph-name="uni2481" unicode="&#x2481;" 
d="M738 55h-61v178h-214v50l218 429h57v-419h70v-60h-70v-178zM529 293h149v196q0 69 5 120h-4q-18 -43 -47 -107l-103 -207v-2zM188 845v-5q-105 -139 -105 -460v-1q0 -320 105 -459v-5h-48q-105 143 -105 465t105 465h48zM812 -85v5q105 139 105 460v1q0 320 -105 459v5
h48q105 -143 105 -465t-105 -465h-48zM292 48v597h-2l-94 -56l-9 52l114 71h56v-664h-65z" />
    <glyph glyph-name="uni2482" unicode="&#x2482;" 
d="M188 845v-5q-105 -139 -105 -460v-1q0 -320 105 -459v-5h-48q-105 143 -105 465t105 465h48zM812 -85v5q105 139 105 460v1q0 320 -105 459v5h48q105 -143 105 -465t-105 -465h-48zM292 48v597h-2l-94 -56l-9 52l114 71h56v-664h-65zM505 408l40 297h221v-64h-167
l-26 -178q6 1 23 1q27 0 54 -10.5t54 -31.5t43.5 -61t16.5 -92q0 -99 -52 -161t-137 -62q-65 0 -103 28l15 57q42 -23 85 -23q54 0 88 40.5t34 111.5q0 76 -40 113t-102 37q-36 0 -47 -2z" />
    <glyph glyph-name="uni2483" unicode="&#x2483;" 
d="M753 714v-64q-34 -2 -52 -7q-63 -15 -105.5 -81.5t-53.5 -159.5h2q43 57 109 57q61 0 99.5 -53t38.5 -139q0 -90 -44 -155.5t-117 -65.5q-74 0 -114.5 72t-40.5 189q0 181 78 294t200 113zM637 101q35 0 61.5 38.5t26.5 126.5q0 69 -25 105t-65 36q-35 0 -64 -29t-29 -67
q0 -104 25.5 -157t69.5 -53zM188 845v-5q-105 -139 -105 -460v-1q0 -320 105 -459v-5h-48q-105 143 -105 465t105 465h48zM812 -85v5q105 139 105 460v1q0 320 -105 459v5h48q105 -143 105 -465t-105 -465h-48zM292 48v597h-2l-94 -56l-9 52l114 71h56v-664h-65z" />
    <glyph glyph-name="uni2484" unicode="&#x2484;" 
d="M188 845v-5q-105 -139 -105 -460v-1q0 -320 105 -459v-5h-48q-105 143 -105 465t105 465h48zM812 -85v5q105 139 105 460v1q0 320 -105 459v5h48q105 -143 105 -465t-105 -465h-48zM292 48v597h-2l-94 -56l-9 52l114 71h56v-664h-65zM485 705h296v-44l-204 -606h-64
l195 584v2h-223v64z" />
    <glyph glyph-name="uni2485" unicode="&#x2485;" 
d="M575 403v2q-44 28 -66.5 67.5t-22.5 80.5q0 72 44.5 116.5t107.5 44.5q62 0 102 -44.5t40 -108.5q0 -96 -95 -155v-2q110 -64 110 -178q0 -79 -48 -129.5t-118 -50.5q-72 0 -118 48t-46 121q0 116 110 188zM637 663q-41 0 -63.5 -30.5t-22.5 -74.5q0 -84 92 -130
q75 44 75 127q0 47 -21 77.5t-60 30.5zM630 97q47 0 74 34t27 91q0 98 -108 155q-93 -52 -93 -153q0 -57 26.5 -92t73.5 -35zM188 845v-5q-105 -139 -105 -460v-1q0 -320 105 -459v-5h-48q-105 143 -105 465t105 465h48zM812 -85v5q105 139 105 460v1q0 320 -105 459v5h48
q105 -143 105 -465t-105 -465h-48zM292 48v597h-2l-94 -56l-9 52l114 71h56v-664h-65z" />
    <glyph glyph-name="uni2486" unicode="&#x2486;" 
d="M515 46v64q34 2 52 7q65 15 106.5 84t52.5 157h-2q-45 -57 -109 -57q-62 0 -100.5 53.5t-38.5 138.5q0 90 44.5 155.5t117.5 65.5q74 0 114.5 -72t40.5 -189q0 -180 -78.5 -293.5t-199.5 -113.5zM631 659q-39 0 -64 -44t-25 -117q0 -71 25 -108t66 -37q37 0 65 31.5
t28 64.5q0 104 -25.5 157t-69.5 53zM188 845v-5q-105 -139 -105 -460v-1q0 -320 105 -459v-5h-48q-105 143 -105 465t105 465h48zM812 -85v5q105 139 105 460v1q0 320 -105 459v5h48q105 -143 105 -465t-105 -465h-48zM292 48v597h-2l-94 -56l-9 52l114 71h56v-664h-65z" />
    <glyph glyph-name="uni2487" unicode="&#x2487;" 
d="M659 46q-70 0 -106.5 89t-36.5 243q0 164 41 250t111 86q69 0 104.5 -87.5t35.5 -244.5q0 -174 -43.5 -255t-105.5 -81zM662 109q44 0 64 78.5t20 192.5q0 120 -21 195.5t-63 75.5t-62.5 -74.5t-20.5 -196.5t20.5 -196.5t62.5 -74.5zM188 845v-5q-105 -139 -105 -460v-1
q0 -320 105 -459v-5h-48q-105 143 -105 465t105 465h48zM812 -85v5q105 139 105 460v1q0 320 -105 459v5h48q105 -143 105 -465t-105 -465h-48zM458 55h-270v44l47 77q4 6 20.5 33t22.5 37.5t21 37t22 41.5t19 40t18 44t13 42t9.5 45t2.5 43q0 55 -22 86t-62 31
q-15 0 -29 -4t-22 -8t-17 -10t-11 -7l-12 52q40 35 102 35q65 0 101.5 -46t36.5 -127q0 -83 -37 -164.5t-111 -198.5l-37 -60v-2h195v-61z" />
    <glyph glyph-name="uni2488" unicode="&#x2488;" 
d="M468 -9v681h-2l-151 -83l-26 64l191 106h72v-768h-84zM912 -8q-23 0 -37 15.5t-14 42.5q0 26 14 42t37 16q25 0 39 -16t14 -42q0 -58 -53 -58z" />
    <glyph glyph-name="uni2489" unicode="&#x2489;" 
d="M292 595l-43 59q48 54 105 81.5t138 27.5q103 0 162.5 -60t59.5 -148q0 -29 -4 -55.5t-18 -55t-23.5 -48t-36.5 -51t-40 -47t-53 -53t-55 -51.5t-65 -59l-72 -62v-2h388v-71h-517v54l85 75q175 156 225 212q92 103 98 191v13q0 63 -40.5 104t-107.5 41q-101 0 -186 -95z
M912 -8q-23 0 -37 15.5t-14 42.5q0 26 14 42t37 16q25 0 39 -16t14 -42q0 -58 -53 -58z" />
    <glyph glyph-name="uni248A" unicode="&#x248a;" 
d="M278 625l-30 62q36 32 97 54t127 22q107 0 164 -52t57 -127q0 -68 -39.5 -116.5t-118.5 -68.5v-2q82 -11 135 -60t53 -133q0 -85 -70.5 -151t-207.5 -66q-140 0 -224 70l31 65q80 -66 193 -66q93 0 139.5 47t46.5 105q0 56 -34 91t-80.5 47t-105.5 12h-67v66h67
q77 0 135 39t58 106q0 53 -37.5 88.5t-107.5 35.5q-52 0 -102 -20.5t-79 -47.5zM912 -8q-23 0 -37 15.5t-14 42.5q0 26 14 42t37 16q25 0 39 -16t14 -42q0 -58 -53 -58z" />
    <glyph glyph-name="uni248B" unicode="&#x248b;" 
d="M646 -9h-86v184h-379v56l362 528h103v-517h123v-67h-123v-184zM278 242h282v302q2 84 4 132h-4q-34 -63 -76 -127l-206 -305v-2zM912 -8q-23 0 -37 15.5t-14 42.5q0 26 14 42t37 16q25 0 39 -16t14 -42q0 -58 -53 -58z" />
    <glyph glyph-name="uni248C" unicode="&#x248c;" 
d="M277 398l47 352h376v-72h-313l-30 -207q38 6 78 6q75 0 131.5 -20t88.5 -54t47.5 -75t15.5 -88q0 -110 -79.5 -181.5t-212.5 -71.5q-59 0 -112.5 15.5t-83.5 36.5l26 69q80 -52 172 -52q84 0 141.5 47t57.5 130q0 84 -56.5 131.5t-171.5 47.5q-64 0 -122 -14zM912 -8
q-23 0 -37 15.5t-14 42.5q0 26 14 42t37 16q25 0 39 -16t14 -42q0 -58 -53 -58z" />
    <glyph glyph-name="uni248D" unicode="&#x248d;" 
d="M303 397h2q31 42 81.5 68t114.5 26q102 0 169.5 -66.5t67.5 -177.5q0 -110 -70.5 -185t-184.5 -75q-125 0 -198 88t-73 229q0 102 33 188t90 146q65 69 154.5 96.5t164.5 27.5l7 -70h-16q-130 0 -226.5 -82t-115.5 -213zM475 426q-74 0 -125 -48.5t-51 -90.5
q1 -108 50 -171t135 -63q74 0 119 50.5t45 136.5q0 89 -47 137.5t-126 48.5zM912 -8q-23 0 -37 15.5t-14 42.5q0 26 14 42t37 16q25 0 39 -16t14 -42q0 -58 -53 -58z" />
    <glyph glyph-name="uni248E" unicode="&#x248e;" 
d="M226 750h500v-60l-338 -690h-97l339 676v2h-404v72zM912 -8q-23 0 -37 15.5t-14 42.5q0 26 14 42t37 16q25 0 39 -16t14 -42q0 -58 -53 -58z" />
    <glyph glyph-name="uni248F" unicode="&#x248f;" 
d="M364 392v3q-131 50 -131 166q0 88 70.5 145t177.5 57q109 0 171 -54t62 -132q0 -123 -134 -177v-3q80 -25 123 -74t43 -115q0 -100 -80 -160.5t-193 -60.5q-117 0 -193.5 57.5t-76.5 148.5q0 139 161 199zM478 700q-77 0 -119 -38.5t-42 -91.5q0 -111 170 -144
q63 14 103.5 52t40.5 92q0 50 -38 90t-115 40zM471 51q86 0 135 43t49 100q0 71 -48.5 110t-145.5 58q-80 -15 -124 -58t-44 -100q0 -62 48 -107.5t130 -45.5zM912 -8q-23 0 -37 15.5t-14 42.5q0 26 14 42t37 16q25 0 39 -16t14 -42q0 -58 -53 -58z" />
    <glyph glyph-name="uni2490" unicode="&#x2490;" 
d="M646 353h-2q-69 -94 -196 -94q-102 0 -169 66.5t-67 177.5q0 110 70 185t184 75q126 0 198.5 -89t72.5 -228q0 -102 -33 -188.5t-90 -146.5q-59 -62 -145 -92.5t-174 -30.5l-7 70h17q131 0 226.5 82t114.5 213zM465 697q-73 0 -118 -50.5t-45 -136.5q0 -88 46.5 -137
t125.5 -49q74 0 125.5 48.5t51.5 90.5q-2 108 -51 171t-135 63zM912 -8q-23 0 -37 15.5t-14 42.5q0 26 14 42t37 16q25 0 39 -16t14 -42q0 -58 -53 -58z" />
    <glyph glyph-name="uni249C" unicode="&#x249c;" 
d="M682 413v-192q0 -75 8 -127h-67l-8 77h-2q-21 -36 -60 -58t-92 -22q-68 0 -106.5 42.5t-38.5 101.5q0 90 76 138t216 48q0 141 -115 141q-67 0 -124 -38l-18 52q64 42 154 42q45 0 78 -13t51.5 -32.5t29.5 -48t14.5 -54.5t3.5 -57zM611 261v110q-41 0 -77 -6t-71.5 -19
t-56.5 -39t-21 -62q0 -48 26.5 -73.5t63.5 -25.5q60 0 98 35.5t38 79.5zM188 845v-5q-105 -139 -105 -460v-1q0 -320 105 -459v-5h-48q-105 143 -105 465t105 465h48zM812 -85v5q105 139 105 460v1q0 320 -105 459v5h48q105 -143 105 -465t-105 -465h-48z" />
    <glyph glyph-name="uni249D" unicode="&#x249d;" 
d="M323 139v611h71v-302h3q45 86 138 86q77 0 122.5 -70t45.5 -187q0 -131 -52.5 -200.5t-128.5 -69.5q-90 0 -132 86h-3l-5 -84h-63q4 47 4 130zM394 330v-127q0 -43 30 -89.5t85 -46.5q59 0 91 58t32 149q0 86 -31.5 142.5t-91.5 56.5q-51 0 -83 -46.5t-32 -96.5zM187 845
v-5q-106 -141 -106 -460v-1q0 -318 106 -459v-5h-47q-105 143 -105 465t105 465h47zM813 -85v5q106 141 106 460v1q0 318 -106 459v5h47q105 -143 105 -465t-105 -465h-47z" />
    <glyph glyph-name="uni249E" unicode="&#x249e;" 
d="M187 845v-5q-106 -141 -106 -460v-1q0 -318 106 -459v-5h-47q-105 143 -105 465t105 465h47zM813 -85v5q106 141 106 460v1q0 318 -106 459v5h47q105 -143 105 -465t-105 -465h-47zM661 176l14 -58q-54 -27 -125 -27q-105 0 -168.5 70.5t-63.5 188.5t69.5 193t179.5 75
q66 0 112 -24l-18 -58q-46 23 -98 23q-80 0 -127 -60t-47 -145q0 -93 47.5 -148t123.5 -55q53 0 101 25z" />
    <glyph glyph-name="uni249F" unicode="&#x249f;" 
d="M605 750h71v-611q0 -60 4 -130h-63l-4 84h-3q-44 -86 -136 -86q-79 0 -127 70.5t-48 187.5q0 127 52.5 197.5t130.5 70.5q81 0 121 -71h2v288zM605 205v125q0 63 -32 103t-78 40q-59 0 -92 -58.5t-33 -147.5q0 -86 31.5 -143t89.5 -57q54 0 84 45.5t30 92.5zM187 845v-5
q-106 -141 -106 -460v-1q0 -318 106 -459v-5h-47q-105 143 -105 465t105 465h47zM813 -85v5q106 141 106 460v1q0 318 -106 459v5h47q105 -143 105 -465t-105 -465h-47z" />
    <glyph glyph-name="uni24A0" unicode="&#x24a0;" 
d="M696 347h-326q-3 -97 45 -148t120 -51q67 0 123 28l14 -55q-60 -30 -148 -30q-104 0 -164 69.5t-60 183.5q0 126 60.5 200t153.5 74q52 0 90 -21.5t57.5 -57t28.5 -73t9 -78.5q0 -26 -3 -41zM370 400h262q1 66 -29 114.5t-95 48.5q-61 0 -96.5 -49.5t-41.5 -113.5z
M187 845v-5q-106 -141 -106 -460v-1q0 -318 106 -459v-5h-47q-105 143 -105 465t105 465h47zM813 -85v5q106 141 106 460v1q0 318 -106 459v5h47q105 -143 105 -465t-105 -465h-47z" />
    <glyph glyph-name="uni24A1" unicode="&#x24a1;" 
d="M187 845v-5q-106 -141 -106 -460v-1q0 -318 106 -459v-5h-47q-105 143 -105 465t105 465h47zM813 -85v5q106 141 106 460v1q0 318 -106 459v5h47q105 -143 105 -465t-105 -465h-47zM495 9h-71v442h-75v55h75q0 33 1 52t6 49.5t17.5 55t32.5 44.5q47 45 120 45
q54 0 84 -17l-16 -56q-26 14 -63 14q-27 0 -47 -8.5t-31.5 -26t-18.5 -33.5t-10 -42t-3.5 -39.5t-0.5 -37.5h134v-55h-134v-442z" />
    <glyph glyph-name="uni24A2" unicode="&#x24a2;" 
d="M677 505v-296q0 -94 -14 -145t-43 -81q-54 -55 -152 -55q-79 0 -131 33l18 57q50 -32 117 -32q63 0 98.5 43.5t35.5 131.5v59h-2q-39 -74 -128 -74q-81 0 -128 70.5t-47 179.5q0 128 55 197t130 69q87 0 125 -78h2l4 76h64q-4 -78 -4 -155zM606 339v130q0 57 -32.5 94.5
t-75.5 37.5q-58 0 -92 -56.5t-34 -145.5q0 -88 34 -141.5t90 -53.5q43 0 76.5 38t33.5 97zM187 845v-5q-106 -141 -106 -460v-1q0 -318 106 -459v-5h-47q-105 143 -105 465t105 465h47zM813 -85v5q106 141 106 460v1q0 318 -106 459v5h47q105 -143 105 -465t-105 -465h-47z
" />
    <glyph glyph-name="uni24A3" unicode="&#x24a3;" 
d="M187 845v-5q-106 -141 -106 -460v-1q0 -318 106 -459v-5h-47q-105 143 -105 465t105 465h47zM813 -85v5q106 141 106 460v1q0 318 -106 459v5h47q105 -143 105 -465t-105 -465h-47zM323 9v741h71v-301h2q21 37 60 61t83 24q56 0 102 -47.5t46 -155.5v-322h-71v319
q0 63 -24 104t-78 41q-48 0 -84 -40t-36 -101v-323h-71z" />
    <glyph glyph-name="uni24A4" unicode="&#x24a4;" 
d="M187 845v-5q-106 -141 -106 -460v-1q0 -318 106 -459v-5h-47q-105 143 -105 465t105 465h47zM813 -85v5q106 141 106 460v1q0 318 -106 459v5h47q105 -143 105 -465t-105 -465h-47zM499 630q-22 0 -36 16.5t-14 38.5q0 24 15 40.5t36 16.5t36 -16.5t15 -40.5
q0 -23 -15 -39t-37 -16zM535 17h-71v522h71v-522z" />
    <glyph glyph-name="uni24A5" unicode="&#x24a5;" 
d="M187 845v-5q-106 -141 -106 -460v-1q0 -318 106 -459v-5h-47q-105 143 -105 465t105 465h47zM813 -85v5q106 141 106 460v1q0 318 -106 459v5h47q105 -143 105 -465t-105 -465h-47zM516 662q-22 0 -36 17t-14 38q0 24 15.5 41t36.5 17t36 -17t15 -41q0 -23 -15.5 -39
t-37.5 -16zM348 -61l-6 57q26 1 46 5.5t34.5 15t24.5 21t16.5 29.5t10 32.5t5 40t2 41.5t0.5 45v340h72v-372q0 -31 -1.5 -52t-7 -54t-19 -55.5t-35 -45t-58 -35t-84.5 -13.5z" />
    <glyph glyph-name="uni24A6" unicode="&#x24a6;" 
d="M187 845v-5q-106 -141 -106 -460v-1q0 -318 106 -459v-5h-47q-105 143 -105 465t105 465h47zM813 -85v5q106 141 106 460v1q0 318 -106 459v5h47q105 -143 105 -465t-105 -465h-47zM405 750v-467h2q18 30 42 64l145 185h79l-178 -219l198 -304h-82l-165 257l-41 -52v-205
h-71v741h71z" />
    <glyph glyph-name="uni24A7" unicode="&#x24a7;" 
d="M187 845v-5q-106 -141 -106 -460v-1q0 -318 106 -459v-5h-47q-105 143 -105 465t105 465h47zM813 -85v5q106 141 106 460v1q0 318 -106 459v5h47q105 -143 105 -465t-105 -465h-47zM464 9v741h71v-741h-71z" />
    <glyph glyph-name="uni24A8" unicode="&#x24a8;" 
d="M187 845v-5q-106 -141 -106 -460v-1q0 -318 106 -459v-5h-47q-105 143 -105 465t105 465h47zM813 -85v5q106 141 106 460v1q0 318 -106 459v5h47q105 -143 105 -465t-105 -465h-47zM260 94v392q0 50 -4 130h56l3 -63h3q32 65 100 65q78 0 99 -67h3q30 67 110 67
q110 0 110 -157v-367h-64v338q0 29 -1.5 46t-7.5 37.5t-20.5 30t-38.5 9.5q-26 0 -47 -19.5t-27 -57.5q-3 -18 -3 -51v-333h-63v342q0 57 -14 88t-55 31q-75 0 -75 -130v-331h-64z" />
    <glyph glyph-name="uni24A9" unicode="&#x24a9;" 
d="M187 845v-5q-106 -141 -106 -460v-1q0 -318 106 -459v-5h-47q-105 143 -105 465t105 465h47zM813 -85v5q106 141 106 460v1q0 318 -106 459v5h47q105 -143 105 -465t-105 -465h-47zM318 94v386q0 36 -4 136h63l4 -86h1q21 41 60 64.5t88 23.5q25 0 49.5 -9.5t49 -30
t39 -61.5t14.5 -97v-326h-71v320q0 62 -24 103t-79 41q-47 0 -83 -39.5t-36 -102.5v-322h-71z" />
    <glyph glyph-name="uni24AA" unicode="&#x24aa;" 
d="M500 91q-91 0 -147 70.5t-56 191.5q0 128 60 196.5t145 68.5q90 0 145.5 -69t55.5 -191q0 -70 -18.5 -124t-49.5 -84t-65 -44.5t-70 -14.5zM500 148q62 0 97 63.5t35 145.5q0 34 -7 67.5t-21 65.5t-41 52t-62 20t-62 -19t-42 -50.5t-22 -66.5t-7 -71q0 -86 34.5 -146.5
t97.5 -60.5zM187 845v-5q-106 -141 -106 -460v-1q0 -318 106 -459v-5h-47q-105 143 -105 465t105 465h47zM813 -85v5q106 141 106 460v1q0 318 -106 459v5h47q105 -143 105 -465t-105 -465h-47z" />
    <glyph glyph-name="uni24AB" unicode="&#x24ab;" 
d="M323 -61v553q0 70 -4 168h65l5 -86h2q44 88 138 88q81 0 127.5 -71t46.5 -188q0 -133 -51.5 -200.5t-133.5 -67.5q-84 0 -122 74h-2v-270h-71zM394 456v-121q0 -59 32 -99.5t81 -40.5q60 0 92.5 58.5t32.5 148.5q0 86 -32 143t-91 57q-46 0 -80.5 -42t-34.5 -104z
M187 845v-5q-106 -141 -106 -460v-1q0 -318 106 -459v-5h-47q-105 143 -105 465t105 465h47zM813 -85v5q106 141 106 460v1q0 318 -106 459v5h47q105 -143 105 -465t-105 -465h-47z" />
    <glyph glyph-name="uni24AC" unicode="&#x24ac;" 
d="M606 -61v272h-3q-15 -33 -49 -54.5t-80 -21.5q-79 0 -128 69.5t-49 185.5q0 131 56 201.5t136 70.5q41 0 74 -21t50 -59h2l4 78h63q-5 -62 -5 -154v-567h-71zM606 334v127q0 62 -32.5 101.5t-78.5 39.5q-60 0 -93.5 -57t-33.5 -149q0 -86 32 -143.5t93 -57.5
q46 0 79.5 41t33.5 98zM187 845v-5q-106 -141 -106 -460v-1q0 -318 106 -459v-5h-47q-105 143 -105 465t105 465h47zM813 -85v5q106 141 106 460v1q0 318 -106 459v5h47q105 -143 105 -465t-105 -465h-47z" />
    <glyph glyph-name="uni24AD" unicode="&#x24ad;" 
d="M187 845v-5q-106 -141 -106 -460v-1q0 -318 106 -459v-5h-47q-105 143 -105 465t105 465h47zM813 -85v5q106 141 106 460v1q0 318 -106 459v5h47q105 -143 105 -465t-105 -465h-47zM373 94v309q0 151 -4 213h67l3 -142h5q56 144 185 144q25 0 41 -4v-68q-17 4 -52 4
q-45 0 -81 -25t-55 -60.5t-28.5 -66.5t-9.5 -51v-253h-71z" />
    <glyph glyph-name="uni24AE" unicode="&#x24ae;" 
d="M187 845v-5q-106 -141 -106 -460v-1q0 -318 106 -459v-5h-47q-105 143 -105 465t105 465h47zM813 -85v5q106 141 106 460v1q0 318 -106 459v5h47q105 -143 105 -465t-105 -465h-47zM320 130l19 56q64 -38 145 -38q60 0 92.5 26.5t32.5 59.5q0 37 -28.5 58.5t-92.5 38.5
q-85 24 -117.5 59.5t-32.5 84.5q0 58 48.5 100.5t136.5 42.5q79 0 134 -33l-19 -54q-57 31 -126 31q-47 0 -76.5 -23.5t-29.5 -54.5q0 -38 26 -57t92 -39q84 -24 118.5 -59.5t34.5 -92.5q0 -62 -52.5 -103.5t-148.5 -41.5q-85 0 -156 39z" />
    <glyph glyph-name="uni24AF" unicode="&#x24af;" 
d="M187 845v-5q-106 -141 -106 -460v-1q0 -318 106 -459v-5h-47q-105 143 -105 465t105 465h47zM813 -85v5q106 141 106 460v1q0 318 -106 459v5h47q105 -143 105 -465t-105 -465h-47zM425 671l71 23v-116h152v-54h-152v-304q0 -101 78 -101q36 0 62 8l4 -55
q-31 -12 -81 -12q-134 0 -134 165v299h-88v54h88v93z" />
    <glyph glyph-name="uni24B0" unicode="&#x24b0;" 
d="M187 845v-5q-106 -141 -106 -460v-1q0 -318 106 -459v-5h-47q-105 143 -105 465t105 465h47zM813 -85v5q106 141 106 460v1q0 318 -106 459v5h47q105 -143 105 -465t-105 -465h-47zM682 616v-383q0 -55 4 -139l-63 -1l-4 81h-2q-50 -83 -147 -83q-68 0 -110 49t-42 164
v312h71v-300q0 -164 102 -164q50 0 85 40t35 95v329h71z" />
    <glyph glyph-name="uni24B1" unicode="&#x24b1;" 
d="M187 845v-5q-106 -141 -106 -460v-1q0 -318 106 -459v-5h-47q-105 143 -105 465t105 465h47zM813 -85v5q106 141 106 460v1q0 318 -106 459v5h47q105 -143 105 -465t-105 -465h-47zM299 616h76l88 -303q19 -67 36 -135h3q21 81 38 135l90 303h70l-171 -522h-62z" />
    <glyph glyph-name="uni24B2" unicode="&#x24b2;" 
d="M187 845v-5q-106 -141 -106 -460v-1q0 -318 106 -459v-5h-47q-105 143 -105 465t105 465h47zM813 -85v5q106 141 106 460v1q0 318 -106 459v5h47q105 -143 105 -465t-105 -465h-47zM233 616h65l58 -259q21 -90 32 -157h3q4 21 14 75t16 79l59 262h46l58 -254
q20 -84 33 -162h3q16 88 32 158l54 258h59l-124 -522h-47l-65 269q-17 83 -25 150h-3q-13 -82 -26 -154l-62 -265h-51z" />
    <glyph glyph-name="uni24B3" unicode="&#x24b3;" 
d="M187 845v-5q-106 -141 -106 -460v-1q0 -318 106 -459v-5h-47q-105 143 -105 465t105 465h47zM813 -85v5q106 141 106 460v1q0 318 -106 459v5h47q105 -143 105 -465t-105 -465h-47zM319 616h78l59 -120q27 -55 46 -96h3q7 16 23 48t23 48l60 120h72l-142 -256l146 -266
h-77l-65 126q-32 66 -48 98h-1q-44 -94 -46 -98l-65 -126h-72l145 264z" />
    <glyph glyph-name="uni24B4" unicode="&#x24b4;" 
d="M187 845v-5q-106 -141 -106 -460v-1q0 -318 106 -459v-5h-47q-105 143 -105 465t105 465h47zM813 -85v5q106 141 106 460v1q0 318 -106 459v5h47q105 -143 105 -465t-105 -465h-47zM305 667h77l92 -312q24 -79 29 -101h2q10 36 31 102l87 311h72l-120 -368
q-36 -101 -49 -135.5t-38 -82t-55 -78.5q-47 -48 -92 -64l-23 59q44 20 80 55q28 28 48 66.5t20 56.5q0 11 -4 23z" />
    <glyph glyph-name="uni24B5" unicode="&#x24b5;" 
d="M187 845v-5q-106 -141 -106 -460v-1q0 -318 106 -459v-5h-47q-105 143 -105 465t105 465h47zM813 -85v5q106 141 106 460v1q0 318 -106 459v5h47q105 -143 105 -465t-105 -465h-47zM327 101v44l211 327l50 75v2h-241v60h325v-46l-212 -326q-23 -37 -49 -74v-2h262v-60
h-346z" />
    <glyph glyph-name="uni24B6" unicode="&#x24b6;" 
d="M965 380q0 -95 -37 -181.5t-99.5 -148.5t-148.5 -98.5t-180 -36.5q-95 0 -181 37t-148 99t-99 148t-37 181t37 181t99 148t148 99t181 37t181 -37t148 -99t99 -148t37 -181zM500 814q-181 0 -307.5 -127.5t-126.5 -306.5q0 -180 127 -307t307 -127t307 127t127 307
t-127 307t-307 127zM591 301h-184l-59 -160h-64l186 498h60l186 -498h-66zM420 349h157l-48 132q-14 32 -29 81h-3q-9 -33 -27 -79z" />
    <glyph glyph-name="uni24B7" unicode="&#x24b7;" 
d="M335 138v477q55 12 146 12q201 0 201 -128q0 -34 -25.5 -64.5t-65.5 -41.5v-3q43 -7 78.5 -36t35.5 -80q0 -57 -39 -93q-29 -27 -78.5 -38.5t-135.5 -11.5q-74 0 -117 7zM397 573v-162h103q58 0 89.5 24.5t31.5 59.5q0 49 -37 67t-101 18q-53 0 -86 -7zM397 364v-180
q21 -4 81 -4q162 0 162 93q0 91 -154 91h-89zM965 380q0 -95 -37 -181.5t-99.5 -148.5t-148.5 -98.5t-180 -36.5q-95 0 -181 37t-148 99t-99 148t-37 181t37 181t99 148t148 99t181 37t181 -37t148 -99t99 -148t37 -181zM500 814q-181 0 -307.5 -127.5t-126.5 -306.5
q0 -180 127 -307t307 -127t307 127t127 307t-127 307t-307 127z" />
    <glyph glyph-name="uni24B8" unicode="&#x24b8;" 
d="M965 380q0 -95 -37 -181.5t-99.5 -148.5t-148.5 -98.5t-180 -36.5q-95 0 -181 37t-148 99t-99 148t-37 181t37 181t99 148t148 99t181 37t181 -37t148 -99t99 -148t37 -181zM500 814q-181 0 -307.5 -127.5t-126.5 -306.5q0 -180 127 -307t307 -127t307 127t127 307
t-127 307t-307 127zM651 203l17 -50q-50 -25 -141 -25q-113 0 -183 66.5t-70 180.5q0 109 73 183t196 74q77 0 125 -24l-19 -50q-48 23 -107 23q-91 0 -147 -56.5t-56 -148.5q0 -87 53 -141.5t145 -54.5q68 0 114 23z" />
    <glyph glyph-name="uni24B9" unicode="&#x24b9;" 
d="M965 380q0 -95 -37 -181.5t-99.5 -148.5t-148.5 -98.5t-180 -36.5q-95 0 -181 37t-148 99t-99 148t-37 181t37 181t99 148t148 99t181 37t181 -37t148 -99t99 -148t37 -181zM500 814q-181 0 -307.5 -127.5t-126.5 -306.5q0 -180 127 -307t307 -127t307 127t127 307
t-127 307t-307 127zM335 137v481q78 10 134 10q75 0 129.5 -20.5t83 -55.5t41 -74.5t12.5 -86.5q0 -118 -68 -187q-70 -72 -216 -72q-72 0 -116 5zM397 572v-386q16 -4 67 -4q103 -1 154.5 54t51.5 154q0 88 -48.5 138.5t-147.5 50.5q-46 0 -77 -7z" />
    <glyph glyph-name="uni24BA" unicode="&#x24ba;" 
d="M965 380q0 -95 -37 -181.5t-99.5 -148.5t-148.5 -98.5t-180 -36.5q-95 0 -181 37t-148 99t-99 148t-37 181t37 181t99 148t148 99t181 37t181 -37t148 -99t99 -148t37 -181zM500 814q-181 0 -307.5 -127.5t-126.5 -306.5q0 -180 127 -307t307 -127t307 127t127 307
t-127 307t-307 127zM651 419v-51h-255v-181h282v-51h-344v488h330v-51h-268v-154h255z" />
    <glyph glyph-name="uni24BB" unicode="&#x24bb;" 
d="M965 380q0 -95 -37 -181.5t-99.5 -148.5t-148.5 -98.5t-180 -36.5q-95 0 -181 37t-148 99t-99 148t-37 181t37 181t99 148t148 99t181 37t181 -37t148 -99t99 -148t37 -181zM500 814q-181 0 -307.5 -127.5t-126.5 -306.5q0 -180 127 -307t307 -127t307 127t127 307
t-127 307t-307 127zM332 131v493h346v-51h-285v-160h260v-50h-260v-232h-61z" />
    <glyph glyph-name="uni24BC" unicode="&#x24bc;" 
d="M965 380q0 -95 -37 -181.5t-99.5 -148.5t-148.5 -98.5t-180 -36.5q-95 0 -181 37t-148 99t-99 148t-37 181t37 181t99 148t148 99t181 37t181 -37t148 -99t99 -148t37 -181zM500 814q-181 0 -307.5 -127.5t-126.5 -306.5q0 -180 127 -307t307 -127t307 127t127 307
t-127 307t-307 127zM530 339v50h163v-233q-62 -28 -158 -28q-68 0 -119.5 21.5t-81.5 58t-44.5 79.5t-14.5 91q0 107 72.5 180.5t203.5 73.5q77 0 127 -24l-17 -51q-48 23 -115 23q-95 0 -150.5 -56t-55.5 -145q0 -90 53.5 -145t143.5 -55q61 0 97 15v145h-104z" />
    <glyph glyph-name="uni24BD" unicode="&#x24bd;" 
d="M965 380q0 -95 -37 -181.5t-99.5 -148.5t-148.5 -98.5t-180 -36.5q-95 0 -181 37t-148 99t-99 148t-37 181t37 181t99 148t148 99t181 37t181 -37t148 -99t99 -148t37 -181zM500 814q-181 0 -307.5 -127.5t-126.5 -306.5q0 -180 127 -307t307 -127t307 127t127 307
t-127 307t-307 127zM310 629h61v-209h258v209h61v-498h-61v235h-258v-235h-61v498z" />
    <glyph glyph-name="uni24BE" unicode="&#x24be;" 
d="M965 380q0 -95 -37 -181.5t-99.5 -148.5t-148.5 -98.5t-180 -36.5q-95 0 -181 37t-148 99t-99 148t-37 181t37 181t99 148t148 99t181 37t181 -37t148 -99t99 -148t37 -181zM500 814q-181 0 -307.5 -127.5t-126.5 -306.5q0 -180 127 -307t307 -127t307 127t127 307
t-127 307t-307 127zM469 629h62v-498h-62v498z" />
    <glyph glyph-name="uni24BF" unicode="&#x24bf;" 
d="M965 380q0 -95 -37 -181.5t-99.5 -148.5t-148.5 -98.5t-180 -36.5q-95 0 -181 37t-148 99t-99 148t-37 181t37 181t99 148t148 99t181 37t181 -37t148 -99t99 -148t37 -181zM500 814q-181 0 -307.5 -127.5t-126.5 -306.5q0 -180 127 -307t307 -127t307 127t127 307
t-127 307t-307 127zM550 332v297h62v-295q0 -206 -172 -206q-54 0 -90 18l16 50q36 -16 74 -16q110 0 110 152z" />
    <glyph glyph-name="uni24C0" unicode="&#x24c0;" 
d="M965 380q0 -95 -37 -181.5t-99.5 -148.5t-148.5 -98.5t-180 -36.5q-95 0 -181 37t-148 99t-99 148t-37 181t37 181t99 148t148 99t181 37t181 -37t148 -99t99 -148t37 -181zM500 814q-181 0 -307.5 -127.5t-126.5 -306.5q0 -180 127 -307t307 -127t307 127t127 307
t-127 307t-307 127zM327 131v498h61v-239l2 -1q21 28 41 50l169 190h80l-199 -212l219 -286h-77l-185 245l-50 -51v-194h-61z" />
    <glyph glyph-name="uni24C1" unicode="&#x24c1;" 
d="M965 380q0 -95 -37 -181.5t-99.5 -148.5t-148.5 -98.5t-180 -36.5q-95 0 -181 37t-148 99t-99 148t-37 181t37 181t99 148t148 99t181 37t181 -37t148 -99t99 -148t37 -181zM500 814q-181 0 -307.5 -127.5t-126.5 -306.5q0 -180 127 -307t307 -127t307 127t127 307
t-127 307t-307 127zM332 136v493h62v-441h284v-52h-346z" />
    <glyph glyph-name="uni24C2" unicode="&#x24c2;" 
d="M965 380q0 -95 -37 -181.5t-99.5 -148.5t-148.5 -98.5t-180 -36.5q-95 0 -181 37t-148 99t-99 148t-37 181t37 181t99 148t148 99t181 37t181 -37t148 -99t99 -148t37 -181zM500 814q-181 0 -307.5 -127.5t-126.5 -306.5q0 -180 127 -307t307 -127t307 127t127 307
t-127 307t-307 127zM687 131l-14 221q-6 133 -5 187h-1q-16 -55 -55 -160l-93 -245h-46l-89 239q-25 71 -50 162h-2q-1 -57 -8 -188l-13 -216h-58l38 498h63l94 -254q41 -119 49 -150h3q15 47 51 149l98 255h63l35 -498h-60z" />
    <glyph glyph-name="uni24C3" unicode="&#x24c3;" 
d="M965 380q0 -95 -37 -181.5t-99.5 -148.5t-148.5 -98.5t-180 -36.5q-95 0 -181 37t-148 99t-99 148t-37 181t37 181t99 148t148 99t181 37t181 -37t148 -99t99 -148t37 -181zM500 814q-181 0 -307.5 -127.5t-126.5 -306.5q0 -180 127 -307t307 -127t307 127t127 307
t-127 307t-307 127zM369 131h-58v498h63l178 -268q39 -60 81 -139h2q-4 77 -4 189v218h58v-498h-58l-177 262q-32 51 -86 151l-2 -1q3 -73 3 -190v-222z" />
    <glyph glyph-name="uni24C4" unicode="&#x24c4;" 
d="M965 380q0 -95 -37 -181.5t-99.5 -148.5t-148.5 -98.5t-180 -36.5q-95 0 -181 37t-148 99t-99 148t-37 181t37 181t99 148t148 99t181 37t181 -37t148 -99t99 -148t37 -181zM500 814q-181 0 -307.5 -127.5t-126.5 -306.5q0 -180 127 -307t307 -127t307 127t127 307
t-127 307t-307 127zM498 128q-102 0 -164.5 69.5t-62.5 177.5q0 114 65.5 185.5t166.5 71.5t163.5 -69.5t62.5 -177.5q0 -121 -66.5 -189t-164.5 -68zM500 179q76 0 120 57.5t44 145.5q0 80 -43 139.5t-120 59.5q-79 0 -122 -59.5t-43 -145.5q0 -82 42.5 -139.5t121.5 -57.5
z" />
    <glyph glyph-name="uni24C5" unicode="&#x24c5;" 
d="M965 380q0 -95 -37 -181.5t-99.5 -148.5t-148.5 -98.5t-180 -36.5q-95 0 -181 37t-148 99t-99 148t-37 181t37 181t99 148t148 99t181 37t181 -37t148 -99t99 -148t37 -181zM500 814q-181 0 -307.5 -127.5t-126.5 -306.5q0 -180 127 -307t307 -127t307 127t127 307
t-127 307t-307 127zM335 131v488q67 9 143 9q117 0 172 -45q46 -40 46 -100q0 -73 -45 -110q-58 -49 -174 -49q-50 0 -80 5v-198h-62zM397 573v-193q27 -7 83 -7q73 0 114 28.5t41 76.5q0 53 -43 77t-107 24q-58 0 -88 -6z" />
    <glyph glyph-name="uni24C6" unicode="&#x24c6;" 
d="M965 380q0 -95 -37 -181.5t-99.5 -148.5t-148.5 -98.5t-180 -36.5q-95 0 -181 37t-148 99t-99 148t-37 181t37 181t99 148t148 99t181 37t181 -37t148 -99t99 -148t37 -181zM500 814q-181 0 -307.5 -127.5t-126.5 -306.5q0 -180 127 -307t307 -127t307 127t127 307
t-127 307t-307 127zM727 117l-25 -50q-80 22 -178 53q-20 8 -30 8q-97 2 -160 68t-63 178q0 114 65 186t168 72q100 0 162.5 -69.5t62.5 -177.5q0 -91 -39.5 -152t-102.5 -84v-1q80 -20 140 -31zM500 181q76 0 120 57t44 144q0 80 -43.5 138.5t-118.5 58.5q-80 0 -123 -59.5
t-43 -143.5q0 -82 43 -138.5t121 -56.5z" />
    <glyph glyph-name="uni24C7" unicode="&#x24c7;" 
d="M965 380q0 -95 -37 -181.5t-99.5 -148.5t-148.5 -98.5t-180 -36.5q-95 0 -181 37t-148 99t-99 148t-37 181t37 181t99 148t148 99t181 37t181 -37t148 -99t99 -148t37 -181zM500 814q-181 0 -307.5 -127.5t-126.5 -306.5q0 -180 127 -307t307 -127t307 127t127 307
t-127 307t-307 127zM332 131v486q77 11 149 11q114 0 159 -39t45 -96q0 -49 -31 -83.5t-84 -41.5v-3q33 -7 55.5 -31.5t31.5 -56.5q31 -118 49 -146h-68q-13 21 -38 122q-11 47 -36 68.5t-74 25.5h-97v-216h-61zM393 573v-178h104q60 0 92.5 24.5t32.5 66.5q0 94 -139 94
q-59 0 -90 -7z" />
    <glyph glyph-name="uni24C8" unicode="&#x24c8;" 
d="M965 380q0 -95 -37 -181.5t-99.5 -148.5t-148.5 -98.5t-180 -36.5q-95 0 -181 37t-148 99t-99 148t-37 181t37 181t99 148t148 99t181 37t181 -37t148 -99t99 -148t37 -181zM500 814q-181 0 -307.5 -127.5t-126.5 -306.5q0 -180 127 -307t307 -127t307 127t127 307
t-127 307t-307 127zM313 175l22 49q61 -45 155 -45q64 0 98.5 25t34.5 61t-28 57.5t-108 40.5q-84 20 -122 51t-38 88q0 55 50 92.5t138 37.5q89 0 143 -33l-20 -49q-56 31 -124 31q-58 0 -91 -22t-33 -50q0 -36 25 -55t101 -37q94 -23 132.5 -57t38.5 -90q0 -60 -49.5 -101
t-155.5 -41q-101 0 -169 47z" />
    <glyph glyph-name="uni24C9" unicode="&#x24c9;" 
d="M965 380q0 -95 -37 -181.5t-99.5 -148.5t-148.5 -98.5t-180 -36.5q-95 0 -181 37t-148 99t-99 148t-37 181t37 181t99 148t148 99t181 37t181 -37t148 -99t99 -148t37 -181zM500 814q-181 0 -307.5 -127.5t-126.5 -306.5q0 -180 127 -307t307 -127t307 127t127 307
t-127 307t-307 127zM469 117v441h-190v53h442v-53h-191v-441h-61z" />
    <glyph glyph-name="uni24CA" unicode="&#x24ca;" 
d="M965 380q0 -95 -37 -181.5t-99.5 -148.5t-148.5 -98.5t-180 -36.5q-95 0 -181 37t-148 99t-99 148t-37 181t37 181t99 148t148 99t181 37t181 -37t148 -99t99 -148t37 -181zM500 814q-181 0 -307.5 -127.5t-126.5 -306.5q0 -180 127 -307t307 -127t307 127t127 307
t-127 307t-307 127zM310 626h62v-291q0 -81 34 -120t91 -39q59 0 95 39.5t36 119.5v291h62v-285q0 -109 -53 -162.5t-142 -53.5q-84 0 -134.5 51.5t-50.5 161.5v288z" />
    <glyph glyph-name="uni24CB" unicode="&#x24cb;" 
d="M965 380q0 -95 -37 -181.5t-99.5 -148.5t-148.5 -98.5t-180 -36.5q-95 0 -181 37t-148 99t-99 148t-37 181t37 181t99 148t148 99t181 37t181 -37t148 -99t99 -148t37 -181zM500 814q-181 0 -307.5 -127.5t-126.5 -306.5q0 -180 127 -307t307 -127t307 127t127 307
t-127 307t-307 127zM522 124h-68l-169 499h70l81 -255q43 -143 54 -180h1q24 77 61 178l94 257h68z" />
    <glyph glyph-name="uni24CC" unicode="&#x24cc;" 
d="M965 380q0 -95 -37 -181.5t-99.5 -148.5t-148.5 -98.5t-180 -36.5q-95 0 -181 37t-148 99t-99 148t-37 181t37 181t99 148t148 99t181 37t181 -37t148 -99t99 -148t37 -181zM500 814q-181 0 -307.5 -127.5t-126.5 -306.5q0 -180 127 -307t307 -127t307 127t127 307
t-127 307t-307 127zM400 124h-61l-114 499h64l52 -246q17 -88 31 -177h2q11 59 38 178l64 245h51l59 -243q21 -93 34 -180h3q4 27 10 57t13 66.5t11 55.5l56 244h62l-124 -499h-61l-59 248q-18 83 -31 161h-1q-12 -67 -37 -162z" />
    <glyph glyph-name="uni24CD" unicode="&#x24cd;" 
d="M965 380q0 -95 -37 -181.5t-99.5 -148.5t-148.5 -98.5t-180 -36.5q-95 0 -181 37t-148 99t-99 148t-37 181t37 181t99 148t148 99t181 37t181 -37t148 -99t99 -148t37 -181zM500 814q-181 0 -307.5 -127.5t-126.5 -306.5q0 -180 127 -307t307 -127t307 127t127 307
t-127 307t-307 127zM707 131h-74l-70 109q-24 37 -64 104h-3q-16 -32 -59 -100l-70 -113h-74l168 253l-161 245h74l79 -125q22 -34 50 -82h2q28 50 47 81l78 127l74 -1l-164 -245z" />
    <glyph glyph-name="uni24CE" unicode="&#x24ce;" 
d="M965 380q0 -95 -37 -181.5t-99.5 -148.5t-148.5 -98.5t-180 -36.5q-95 0 -181 37t-148 99t-99 148t-37 181t37 181t99 148t148 99t181 37t181 -37t148 -99t99 -148t37 -181zM500 814q-181 0 -307.5 -127.5t-126.5 -306.5q0 -180 127 -307t307 -127t307 127t127 307
t-127 307t-307 127zM531 124h-61v206l-185 293h74l91 -152l53 -95h2q3 6 55 94l92 153h76l-197 -294v-205z" />
    <glyph glyph-name="uni24CF" unicode="&#x24cf;" 
d="M965 380q0 -95 -37 -181.5t-99.5 -148.5t-148.5 -98.5t-180 -36.5q-95 0 -181 37t-148 99t-99 148t-37 181t37 181t99 148t148 99t181 37t181 -37t148 -99t99 -148t37 -181zM500 814q-181 0 -307.5 -127.5t-126.5 -306.5q0 -180 127 -307t307 -127t307 127t127 307
t-127 307t-307 127zM310 136v40l294 394v3h-268v51h349v-42l-291 -392v-2h296v-52h-380z" />
    <glyph glyph-name="uni24D0" unicode="&#x24d0;" 
d="M965 380q0 -95 -37 -181.5t-99.5 -148.5t-148.5 -98.5t-180 -36.5q-95 0 -181 37t-148 99t-99 148t-37 181t37 181t99 148t148 99t181 37t181 -37t148 -99t99 -148t37 -181zM500 814q-181 0 -307.5 -127.5t-126.5 -306.5q0 -180 127 -307t307 -127t307 127t127 307
t-127 307t-307 127zM652 417v-135q0 -46 8 -91h-56l-7 52h-2q-19 -24 -56.5 -42.5t-83.5 -18.5q-62 0 -95.5 32.5t-33.5 75.5q0 68 67 104.5t198 35.5q0 101 -104 101q-65 0 -116 -30l-16 41q61 35 140 35q157 0 157 -160zM592 316v70q-205 4 -205 -88q0 -34 23 -51.5
t58 -17.5q53 0 88.5 27t35.5 60z" />
    <glyph glyph-name="uni24D1" unicode="&#x24d1;" 
d="M965 380q0 -95 -37 -181.5t-99.5 -148.5t-148.5 -98.5t-180 -36.5q-95 0 -181 37t-148 99t-99 148t-37 181t37 181t99 148t148 99t181 37t181 -37t148 -99t99 -148t37 -181zM500 814q-181 0 -307.5 -127.5t-126.5 -306.5q0 -180 127 -307t307 -127t307 127t127 307
t-127 307t-307 127zM328 193v459h61v-247h2q41 76 143 76q77 0 124.5 -54.5t47.5 -136.5q0 -95 -54 -149.5t-128 -54.5q-95 0 -141 76h-2l-3 -67h-53q3 45 3 98zM389 312v-65q0 -46 37 -78.5t86 -32.5q61 0 96.5 40.5t35.5 110.5q0 62 -34.5 103.5t-93.5 41.5
q-58 0 -92.5 -38.5t-34.5 -81.5z" />
    <glyph glyph-name="uni24D2" unicode="&#x24d2;" 
d="M965 380q0 -95 -37 -181.5t-99.5 -148.5t-148.5 -98.5t-180 -36.5q-95 0 -181 37t-148 99t-99 148t-37 181t37 181t99 148t148 99t181 37t181 -37t148 -99t99 -148t37 -181zM500 814q-181 0 -307.5 -127.5t-126.5 -306.5q0 -180 127 -307t307 -127t307 127t127 307
t-127 307t-307 127zM627 253l12 -47q-54 -24 -120 -24q-90 0 -145 53.5t-55 138.5q0 90 60 146.5t156 56.5q66 0 107 -23l-16 -49q-42 23 -93 23q-71 0 -112 -42.5t-40 -107.5q0 -66 42 -106t107 -40q48 0 97 21z" />
    <glyph glyph-name="uni24D3" unicode="&#x24d3;" 
d="M965 380q0 -95 -37 -181.5t-99.5 -148.5t-148.5 -98.5t-180 -36.5q-95 0 -181 37t-148 99t-99 148t-37 181t37 181t99 148t148 99t181 37t181 -37t148 -99t99 -148t37 -181zM500 814q-181 0 -307.5 -127.5t-126.5 -306.5q0 -180 127 -307t307 -127t307 127t127 307
t-127 307t-307 127zM607 657h61v-459q0 -58 4 -98h-55l-4 71h-1q-18 -36 -54.5 -58t-86.5 -22q-75 0 -124.5 54.5t-49.5 136.5q-1 91 51.5 147.5t130.5 56.5q91 0 127 -63h1v234zM607 259v64q0 52 -34.5 83t-83.5 31q-59 0 -95 -42t-36 -110q0 -62 34 -103t96 -41
q48 0 83.5 33.5t35.5 84.5z" />
    <glyph glyph-name="uni24D4" unicode="&#x24d4;" 
d="M965 380q0 -95 -37 -181.5t-99.5 -148.5t-148.5 -98.5t-180 -36.5q-95 0 -181 37t-148 99t-99 148t-37 181t37 181t99 148t148 99t181 37t181 -37t148 -99t99 -148t37 -181zM500 814q-181 0 -307.5 -127.5t-126.5 -306.5q0 -180 127 -307t307 -127t307 127t127 307
t-127 307t-307 127zM676 370h-295q1 -66 41.5 -102t103.5 -36q65 0 117 22l12 -47q-61 -25 -137 -25q-90 0 -144 53t-54 139q0 92 53 151.5t138 59.5q48 0 83 -18.5t52 -48.5t25 -58.5t8 -57.5q0 -20 -3 -32zM381 417h238q0 17 -4 35t-15 39t-34.5 34t-57.5 13
q-56 0 -88.5 -37.5t-38.5 -83.5z" />
    <glyph glyph-name="uni24D5" unicode="&#x24d5;" 
d="M965 380q0 -95 -37 -181.5t-99.5 -148.5t-148.5 -98.5t-180 -36.5q-95 0 -181 37t-148 99t-99 148t-37 181t37 181t99 148t148 99t181 37t181 -37t148 -99t99 -148t37 -181zM500 814q-181 0 -307.5 -127.5t-126.5 -306.5q0 -180 127 -307t307 -127t307 127t127 307
t-127 307t-307 127zM493 97h-63v336h-56v49h56v16q0 52 14 89t37.5 54.5t45.5 24.5t46 7q37 0 63 -12l-11 -49q-18 10 -49 10q-29 0 -47.5 -13.5t-25.5 -39.5t-8.5 -43t-1.5 -44h102v-49h-102v-336z" />
    <glyph glyph-name="uni24D6" unicode="&#x24d6;" 
d="M965 380q0 -95 -37 -181.5t-99.5 -148.5t-148.5 -98.5t-180 -36.5q-95 0 -181 37t-148 99t-99 148t-37 181t37 181t99 148t148 99t181 37t181 -37t148 -99t99 -148t37 -181zM500 814q-181 0 -307.5 -127.5t-126.5 -306.5q0 -180 127 -307t307 -127t307 127t127 307
t-127 307t-307 127zM671 551v-229q0 -224 -205 -224q-85 0 -137 35l18 50q52 -34 121 -34q64 0 101.5 35t37.5 108v46h-1q-42 -70 -136 -70q-77 0 -126 55t-49 132q0 91 55 148t130 57q50 0 83.5 -21t49.5 -51h1l3 63h58q-4 -40 -4 -100zM608 432v64q0 47 -33.5 80t-84.5 33
q-58 0 -94.5 -41.5t-36.5 -109.5q0 -58 33.5 -99.5t96.5 -41.5q48 0 83.5 34.5t35.5 80.5z" />
    <glyph glyph-name="uni24D7" unicode="&#x24d7;" 
d="M965 380q0 -95 -37 -181.5t-99.5 -148.5t-148.5 -98.5t-180 -36.5q-95 0 -181 37t-148 99t-99 148t-37 181t37 181t99 148t148 99t181 37t181 -37t148 -99t99 -148t37 -181zM500 814q-181 0 -307.5 -127.5t-126.5 -306.5q0 -180 127 -307t307 -127t307 127t127 307
t-127 307t-307 127zM340 100v558h63v-247h1q19 34 55.5 55t76.5 21q21 0 42.5 -7t45 -24t38.5 -53t15 -86v-217h-62v213q0 54 -24.5 88.5t-76.5 34.5q-40 0 -76 -30t-36 -81v-225h-62z" />
    <glyph glyph-name="uni24D8" unicode="&#x24d8;" 
d="M965 380q0 -95 -37 -181.5t-99.5 -148.5t-148.5 -98.5t-180 -36.5q-95 0 -181 37t-148 99t-99 148t-37 181t37 181t99 148t148 99t181 37t181 -37t148 -99t99 -148t37 -181zM500 814q-181 0 -307.5 -127.5t-126.5 -306.5q0 -180 127 -307t307 -127t307 127t127 307
t-127 307t-307 127zM500 549q-21 0 -32 13.5t-11 31.5t12.5 31t31.5 13q18 0 30.5 -13t12.5 -31q0 -19 -12 -32t-32 -13zM531 97h-62v377h62v-377z" />
    <glyph glyph-name="uni24D9" unicode="&#x24d9;" 
d="M965 380q0 -95 -37 -181.5t-99.5 -148.5t-148.5 -98.5t-180 -36.5q-95 0 -181 37t-148 99t-99 148t-37 181t37 181t99 148t148 99t181 37t181 -37t148 -99t99 -148t37 -181zM500 814q-181 0 -307.5 -127.5t-126.5 -306.5q0 -180 127 -307t307 -127t307 127t127 307
t-127 307t-307 127zM528 629q-22 0 -33 13.5t-11 31.5t13 31.5t32 13.5t30.5 -13t11.5 -32t-11.5 -32t-31.5 -13zM389 50l-7 49q32 1 54 10t34 22t18.5 37.5t8 47.5t1.5 62v277h61v-304q0 -25 -1 -42.5t-10 -50.5t-25.5 -54t-51 -37.5t-82.5 -16.5z" />
    <glyph glyph-name="uni24DA" unicode="&#x24da;" 
d="M965 380q0 -95 -37 -181.5t-99.5 -148.5t-148.5 -98.5t-180 -36.5q-95 0 -181 37t-148 99t-99 148t-37 181t37 181t99 148t148 99t181 37t181 -37t148 -99t99 -148t37 -181zM500 814q-181 0 -307.5 -127.5t-126.5 -306.5q0 -180 127 -307t307 -127t307 127t127 307
t-127 307t-307 127zM417 658v-355h2q8 10 37 44l124 131h75l-157 -156l179 -222h-76l-145 186l-39 -40v-146h-62v558h62z" />
    <glyph glyph-name="uni24DB" unicode="&#x24db;" 
d="M965 380q0 -95 -37 -181.5t-99.5 -148.5t-148.5 -98.5t-180 -36.5q-95 0 -181 37t-148 99t-99 148t-37 181t37 181t99 148t148 99t181 37t181 -37t148 -99t99 -148t37 -181zM500 814q-181 0 -307.5 -127.5t-126.5 -306.5q0 -180 127 -307t307 -127t307 127t127 307
t-127 307t-307 127zM469 100v558h62v-558h-62z" />
    <glyph glyph-name="uni24DC" unicode="&#x24dc;" 
d="M965 380q0 -95 -37 -181.5t-99.5 -148.5t-148.5 -98.5t-180 -36.5q-95 0 -181 37t-148 99t-99 148t-37 181t37 181t99 148t148 99t181 37t181 -37t148 -99t99 -148t37 -181zM500 814q-181 0 -307.5 -127.5t-126.5 -306.5q0 -180 127 -307t307 -127t307 127t127 307
t-127 307t-307 127zM233 192v277q0 52 -3 100h54l4 -65h2q44 74 120 74q37 0 65 -22.5t40 -57.5h2q41 80 126 80q19 0 38.5 -7.5t39.5 -24.5t32.5 -53t12.5 -86v-215h-61v209q0 61 -22 93.5t-62 32.5q-36 0 -64 -30t-28 -69v-236h-60v226q0 49 -21 79t-59 30t-67 -33.5
t-29 -74.5v-227h-60z" />
    <glyph glyph-name="uni24DD" unicode="&#x24dd;" 
d="M965 380q0 -95 -37 -181.5t-99.5 -148.5t-148.5 -98.5t-180 -36.5q-95 0 -181 37t-148 99t-99 148t-37 181t37 181t99 148t148 99t181 37t181 -37t148 -99t99 -148t37 -181zM500 814q-181 0 -307.5 -127.5t-126.5 -306.5q0 -180 127 -307t307 -127t307 127t127 307
t-127 307t-307 127zM331 192v277q0 52 -3 100h56l4 -68h2q16 32 52 54.5t83 22.5q21 0 43 -7t46 -23.5t39 -52.5t15 -86v-217h-62v214q0 53 -24.5 87t-75.5 34q-44 0 -78.5 -31t-34.5 -77v-227h-62z" />
    <glyph glyph-name="uni24DE" unicode="&#x24de;" 
d="M965 380q0 -95 -37 -181.5t-99.5 -148.5t-148.5 -98.5t-180 -36.5q-95 0 -181 37t-148 99t-99 148t-37 181t37 181t99 148t148 99t181 37t181 -37t148 -99t99 -148t37 -181zM500 814q-181 0 -307.5 -127.5t-126.5 -306.5q0 -180 127 -307t307 -127t307 127t127 307
t-127 307t-307 127zM496 183q-84 0 -139 54t-55 139q0 91 57.5 146.5t142.5 55.5q88 0 141.5 -55t53.5 -138q0 -99 -60 -150.5t-141 -51.5zM497 230q59 0 98.5 41.5t39.5 110.5q0 57 -35 103t-100 46q-64 0 -100 -45t-36 -107q0 -68 38.5 -108.5t94.5 -40.5z" />
    <glyph glyph-name="uni24DF" unicode="&#x24df;" 
d="M965 380q0 -95 -37 -181.5t-99.5 -148.5t-148.5 -98.5t-180 -36.5q-95 0 -181 37t-148 99t-99 148t-37 181t37 181t99 148t148 99t181 37t181 -37t148 -99t99 -148t37 -181zM500 814q-181 0 -307.5 -127.5t-126.5 -306.5q0 -180 127 -307t307 -127t307 127t127 307
t-127 307t-307 127zM328 97v410q0 65 -3 123h56l3 -71h2q47 80 147 80q76 0 124.5 -55t48.5 -136q0 -96 -53 -150t-130 -54q-92 0 -132 66h-1v-213h-62zM390 472v-66q0 -50 37 -81.5t85 -31.5q61 0 97 41.5t36 111.5q0 61 -35 102t-94 41q-58 0 -92 -38t-34 -79z" />
    <glyph glyph-name="uni24E0" unicode="&#x24e0;" 
d="M965 380q0 -95 -37 -181.5t-99.5 -148.5t-148.5 -98.5t-180 -36.5q-95 0 -181 37t-148 99t-99 148t-37 181t37 181t99 148t148 99t181 37t181 -37t148 -99t99 -148t37 -181zM500 814q-181 0 -307.5 -127.5t-126.5 -306.5q0 -180 127 -307t307 -127t307 127t127 307
t-127 307t-307 127zM608 97v219h-2q-41 -72 -137 -72q-74 0 -123.5 54.5t-49.5 134.5q0 100 56.5 153t129.5 53q92 0 129 -71l2 -1l2 63h57q-2 -33 -2 -98v-435h-62zM608 405v72q0 51 -34.5 81.5t-83.5 30.5q-60 0 -96 -40.5t-36 -109.5q0 -63 33 -104.5t96 -41.5
q54 0 87.5 36.5t33.5 75.5z" />
    <glyph glyph-name="uni24E1" unicode="&#x24e1;" 
d="M965 380q0 -95 -37 -181.5t-99.5 -148.5t-148.5 -98.5t-180 -36.5q-95 0 -181 37t-148 99t-99 148t-37 181t37 181t99 148t148 99t181 37t181 -37t148 -99t99 -148t37 -181zM500 814q-181 0 -307.5 -127.5t-126.5 -306.5q0 -180 127 -307t307 -127t307 127t127 307
t-127 307t-307 127zM403 192v252q0 68 -3 125h57l2 -81h3q18 42 55.5 66t88.5 24q8 0 26 -2v-57q-11 3 -34 3q-61 0 -97 -38t-36 -91v-201h-62z" />
    <glyph glyph-name="uni24E2" unicode="&#x24e2;" 
d="M965 380q0 -95 -37 -181.5t-99.5 -148.5t-148.5 -98.5t-180 -36.5q-95 0 -181 37t-148 99t-99 148t-37 181t37 181t99 148t148 99t181 37t181 -37t148 -99t99 -148t37 -181zM500 814q-181 0 -307.5 -127.5t-126.5 -306.5q0 -180 127 -307t307 -127t307 127t127 307
t-127 307t-307 127zM346 213l17 47q57 -31 126 -31q53 0 79 17.5t26 43.5q0 27 -24 42t-78 28q-68 17 -100 42.5t-32 64.5q0 47 42.5 79t116.5 32q69 0 117 -26l-17 -45q-50 25 -110 25q-42 0 -65.5 -16t-23.5 -42q0 -25 23 -38.5t77 -26.5q70 -18 102 -43.5t32 -70.5
q0 -51 -43.5 -81.5t-129.5 -30.5q-75 0 -135 30z" />
    <glyph glyph-name="uni24E3" unicode="&#x24e3;" 
d="M965 380q0 -95 -37 -181.5t-99.5 -148.5t-148.5 -98.5t-180 -36.5q-95 0 -181 37t-148 99t-99 148t-37 181t37 181t99 148t148 99t181 37t181 -37t148 -99t99 -148t37 -181zM500 814q-181 0 -307.5 -127.5t-126.5 -306.5q0 -180 127 -307t307 -127t307 127t127 307
t-127 307t-307 127zM432 593l62 17v-89h129v-47h-129v-211q0 -77 56 -77q23 0 45 6l3 -47q-22 -10 -63 -10q-103 0 -103 127v212h-83v47h83v72z" />
    <glyph glyph-name="uni24E4" unicode="&#x24e4;" 
d="M965 380q0 -95 -37 -181.5t-99.5 -148.5t-148.5 -98.5t-180 -36.5q-95 0 -181 37t-148 99t-99 148t-37 181t37 181t99 148t148 99t181 37t181 -37t148 -99t99 -148t37 -181zM500 814q-181 0 -307.5 -127.5t-126.5 -306.5q0 -180 127 -307t307 -127t307 127t127 307
t-127 307t-307 127zM667 568v-277q0 -53 3 -100h-55l-4 69h-2q-18 -32 -52.5 -55t-84.5 -23q-18 0 -35 3.5t-36.5 15t-34 29.5t-24 50t-9.5 74v214h61v-204q0 -131 98 -131q45 0 79.5 31.5t34.5 75.5v228h61z" />
    <glyph glyph-name="uni24E5" unicode="&#x24e5;" 
d="M965 380q0 -95 -37 -181.5t-99.5 -148.5t-148.5 -98.5t-180 -36.5q-95 0 -181 37t-148 99t-99 148t-37 181t37 181t99 148t148 99t181 37t181 -37t148 -99t99 -148t37 -181zM500 814q-181 0 -307.5 -127.5t-126.5 -306.5q0 -180 127 -307t307 -127t307 127t127 307
t-127 307t-307 127zM309 568h67l86 -215q22 -57 36 -102h2q8 25 39 102l85 215h66l-168 -377h-51z" />
    <glyph glyph-name="uni24E6" unicode="&#x24e6;" 
d="M965 380q0 -95 -37 -181.5t-99.5 -148.5t-148.5 -98.5t-180 -36.5q-95 0 -181 37t-148 99t-99 148t-37 181t37 181t99 148t148 99t181 37t181 -37t148 -99t99 -148t37 -181zM500 814q-181 0 -307.5 -127.5t-126.5 -306.5q0 -180 127 -307t307 -127t307 127t127 307
t-127 307t-307 127zM212 568h64l56 -200q26 -96 31 -119h2q4 17 37 118l70 201h55l66 -199q25 -72 37 -120h1q11 49 33 120l62 199h62l-132 -377h-55l-64 185q-26 71 -38 129h-3q-12 -56 -40 -130l-68 -184h-56z" />
    <glyph glyph-name="uni24E7" unicode="&#x24e7;" 
d="M965 380q0 -95 -37 -181.5t-99.5 -148.5t-148.5 -98.5t-180 -36.5q-95 0 -181 37t-148 99t-99 148t-37 181t37 181t99 148t148 99t181 37t181 -37t148 -99t99 -148t37 -181zM500 814q-181 0 -307.5 -127.5t-126.5 -306.5q0 -180 127 -307t307 -127t307 127t127 307
t-127 307t-307 127zM326 568h71l59 -83l45 -65h3q16 28 43 65l61 83h67l-138 -182l143 -195h-70l-63 87q-5 7 -49 70h-2q-25 -40 -48 -70l-61 -87h-69l146 193z" />
    <glyph glyph-name="uni24E8" unicode="&#x24e8;" 
d="M965 380q0 -95 -37 -181.5t-99.5 -148.5t-148.5 -98.5t-180 -36.5q-95 0 -181 37t-148 99t-99 148t-37 181t37 181t99 148t148 99t181 37t181 -37t148 -99t99 -148t37 -181zM500 814q-181 0 -307.5 -127.5t-126.5 -306.5q0 -180 127 -307t307 -127t307 127t127 307
t-127 307t-307 127zM318 627h67l95 -232l28 -80h1q3 8 12.5 37t15.5 45l87 230h65l-119 -291q-25 -59 -41.5 -93t-43 -74t-58.5 -62.5t-72 -31.5l-15 53q28 8 52 24t38.5 33t24.5 34t14 27.5t4 13.5q0 8 -5 18z" />
    <glyph glyph-name="uni24E9" unicode="&#x24e9;" 
d="M965 380q0 -95 -37 -181.5t-99.5 -148.5t-148.5 -98.5t-180 -36.5q-95 0 -181 37t-148 99t-99 148t-37 181t37 181t99 148t148 99t181 37t181 -37t148 -99t99 -148t37 -181zM500 814q-181 0 -307.5 -127.5t-126.5 -306.5q0 -180 127 -307t307 -127t307 127t127 307
t-127 307t-307 127zM335 191v37l195 229q18 20 55 60v2h-234v49h309v-40l-192 -227q-25 -30 -53 -59v-2h249v-49h-329z" />
    <glyph glyph-name="uni24EA" unicode="&#x24ea;" 
d="M965 380q0 -95 -37 -181.5t-99.5 -148.5t-148.5 -98.5t-180 -36.5q-95 0 -181 37t-148 99t-99 148t-37 181t37 181t99 148t148 99t181 37t181 -37t148 -99t99 -148t37 -181zM500 814q-181 0 -307.5 -127.5t-126.5 -306.5q0 -180 127 -307t307 -127t307 127t127 307
t-127 307t-307 127zM496 120q-47 0 -83 23t-57.5 60.5t-32 82t-10.5 91.5q0 122 54.5 193t137.5 71q87 0 134 -67.5t47 -184.5q0 -129 -49.5 -199t-140.5 -70zM499 173q119 0 119 210q0 204 -118 204q-11 0 -21.5 -2t-29.5 -14.5t-32.5 -33.5t-24 -64t-10.5 -101
q0 -93 31.5 -146t85.5 -53z" />
    <glyph glyph-name="uni24EB" unicode="&#x24eb;" 
d="M500 845q95 0 181.5 -37t148.5 -99.5t98.5 -148.5t36.5 -180q0 -95 -37 -181t-99 -148t-148 -99t-181 -37t-181 37t-148 99t-99 148t-37 181t37 181t99 148t148 99t181 37zM302 519v-380h94v482h-75l-111 -61l23 -76l66 35h3zM641 519v-380h94v482h-75l-111 -61l23 -76
l65 35h4z" />
    <glyph glyph-name="uni24EC" unicode="&#x24ec;" 
d="M500 845q95 0 181.5 -37t148.5 -99.5t98.5 -148.5t36.5 -180q0 -95 -37 -181t-99 -148t-148 -99t-181 -37t-181 37t-148 99t-99 148t-37 181t37 181t99 148t148 99t181 37zM292 519v-380h94v482h-75l-111 -61l23 -76l66 35h3zM492 144h289v81h-162v2l33 36
q65 71 92.5 120.5t27.5 103.5q0 55 -35.5 95t-112.5 40q-70 0 -122 -44l30 -71q2 1 14.5 9.5t20 12.5t21.5 8.5t28 4.5q62 0 62 -61q0 -46 -34 -96t-104 -126l-48 -54v-61z" />
    <glyph glyph-name="uni24ED" unicode="&#x24ed;" 
d="M500 845q95 0 181.5 -37t148.5 -99.5t98.5 -148.5t36.5 -180q0 -95 -37 -181t-99 -148t-148 -99t-181 -37t-181 37t-148 99t-99 148t-37 181t37 181t99 148t148 99t181 37zM292 519v-380h94v482h-75l-111 -61l23 -76l66 35h3zM513 244l-30 -73q20 -12 54.5 -22.5
t64.5 -10.5q89 0 136.5 43.5t47.5 103.5q0 43 -20.5 73.5t-51.5 43.5v2q24 14 40.5 40t16.5 59q0 50 -38 84.5t-109 34.5q-72 0 -121 -38l29 -70q47 28 83 28q62 0 62 -49q0 -30 -28 -45.5t-63 -15.5h-38v-76h35q108 0 108 -72q0 -30 -21 -48t-63 -18q-52 0 -94 26z" />
    <glyph glyph-name="uni24EE" unicode="&#x24ee;" 
d="M500 845q95 0 181.5 -37t148.5 -99.5t98.5 -148.5t36.5 -180q0 -95 -37 -181t-99 -148t-148 -99t-181 -37t-181 37t-148 99t-99 148t-37 181t37 181t99 148t148 99t181 37zM292 519v-380h94v482h-75l-111 -61l23 -76l66 35h3zM661 139h89v118h56v78h-56v286h-87
l-192 -303v-61h190v-118zM661 335h-88v2l56 91q24 39 32 58h3q-3 -36 -3 -63v-88z" />
    <glyph glyph-name="uni24EF" unicode="&#x24ef;" 
d="M500 845q95 0 181.5 -37t148.5 -99.5t98.5 -148.5t36.5 -180q0 -95 -37 -181t-99 -148t-148 -99t-181 -37t-181 37t-148 99t-99 148t-37 181t37 181t99 148t148 99t181 37zM292 519v-380h94v482h-75l-111 -61l23 -76l66 35h3zM775 535v81h-218l-34 -243q28 6 60 6
q102 0 102 -82q0 -37 -21.5 -58t-58.5 -21q-41 0 -81 26l-28 -74q42 -32 110 -32q79 0 125.5 48.5t46.5 117.5q0 64 -44.5 107t-113.5 43l12 81h143z" />
    <glyph glyph-name="uni24F0" unicode="&#x24f0;" 
d="M500 845q95 0 181.5 -37t148.5 -99.5t98.5 -148.5t36.5 -180q0 -95 -37 -181t-99 -148t-148 -99t-181 -37t-181 37t-148 99t-99 148t-37 181t37 181t99 148t148 99t181 37zM763 539v82q-9 1 -29 1q-108 0 -176 -81.5t-68 -207.5q0 -90 40.5 -142.5t108.5 -52.5
q75 0 118 50.5t43 117.5q0 64 -38 106t-101 42q-36 0 -62 -15h-3q3 11 9.5 23.5t20 30.5t36 30.5t51.5 14.5q8 1 50 1zM292 519v-380h94v482h-75l-111 -61l23 -76l66 35h3zM648 212q-33 0 -49 30t-16 72q0 26 12.5 42t25 20t25.5 4q62 0 62 -79q0 -42 -16 -65.5t-44 -23.5z
" />
    <glyph glyph-name="uni24F1" unicode="&#x24f1;" 
d="M500 845q95 0 181.5 -37t148.5 -99.5t98.5 -148.5t36.5 -180q0 -95 -37 -181t-99 -148t-148 -99t-181 -37t-181 37t-148 99t-99 148t-37 181t37 181t99 148t148 99t181 37zM292 519v-380h94v482h-75l-111 -61l23 -76l66 35h3zM786 616h-292v-81h188v-2l-170 -394h95
l179 419v58z" />
    <glyph glyph-name="uni24F2" unicode="&#x24f2;" 
d="M500 845q95 0 181.5 -37t148.5 -99.5t98.5 -148.5t36.5 -180q0 -95 -37 -181t-99 -148t-148 -99t-181 -37t-181 37t-148 99t-99 148t-37 181t37 181t99 148t148 99t181 37zM292 519v-380h94v482h-75l-111 -61l23 -76l66 35h3zM729 396v3q60 35 60 102q0 53 -41 87
t-101 34q-67 0 -111 -37t-44 -92q0 -59 58 -98v-2q-33 -19 -53 -51.5t-20 -70.5q0 -58 46 -95.5t115 -37.5q70 0 117.5 38.5t47.5 101.5q0 79 -74 118zM643 551q59 0 59 -58q0 -19 -14 -37t-36 -27q-70 20 -70 66q0 23 14.5 39.5t46.5 16.5zM641 209q-36 0 -54.5 19
t-18.5 51q0 50 62 79q83 -27 83 -82q0 -67 -72 -67z" />
    <glyph glyph-name="uni24F3" unicode="&#x24f3;" 
d="M500 845q95 0 181.5 -37t148.5 -99.5t98.5 -148.5t36.5 -180q0 -95 -37 -181t-99 -148t-148 -99t-181 -37t-181 37t-148 99t-99 148t-37 181t37 181t99 148t148 99t181 37zM292 519v-380h94v482h-75l-111 -61l23 -76l66 35h3zM530 221v-83q49 0 59 1q99 12 156.5 93.5
t57.5 194.5q0 91 -41 143t-109 52q-71 0 -115 -50t-44 -118q0 -65 38.5 -106.5t100.5 -41.5q40 0 59 15h3q-34 -107 -165 -100zM647 548q32 0 47 -31t15 -71q0 -66 -65 -66q-28 0 -43 21.5t-15 58.5q0 40 15.5 64t45.5 24z" />
    <glyph glyph-name="uni24F4" unicode="&#x24f4;" 
d="M500 845q95 0 181.5 -37t148.5 -99.5t98.5 -148.5t36.5 -180q0 -95 -37 -181t-99 -148t-148 -99t-181 -37t-181 37t-148 99t-99 148t-37 181t37 181t99 148t148 99t181 37zM206 144h263v81h-148v2l31 36q59 71 83.5 120.5t24.5 103.5q0 56 -32 95.5t-101 39.5
q-63 0 -112 -44l27 -71q1 0 13 9.5t18.5 13t19 8t24.5 4.5q54 0 54 -61q1 -46 -28.5 -95t-93.5 -127l-43 -54v-61zM664 138q66 0 106 63t40 183q0 111 -36 174.5t-102 63.5q-67 0 -107 -65t-40 -179q1 -110 38 -175t101 -65zM668 218h-1q-53 0 -53 163q0 75 15 118t39 43
q52 0 52 -161q0 -163 -52 -163z" />
    <glyph glyph-name="Japan1.10503" unicode="&#x24ff;" 
d="M500 845q95 0 181.5 -37t148.5 -99.5t98.5 -148.5t36.5 -180q0 -95 -37 -181t-99 -148t-148 -99t-181 -37t-181 37t-148 99t-99 148t-37 181t37 181t99 148t148 99t181 37zM500 109q100 0 150.5 75.5t50.5 195.5q0 51 -10 95.5t-31.5 85t-62.5 64.5t-96 24
q-70 0 -117 -40t-66 -99t-19 -132q0 -112 48.5 -190.5t152.5 -78.5zM502 187q-86 0 -86 181q0 204 86 204q84 0 84 -193q0 -192 -84 -192z" />
    <glyph glyph-name="uni2776" unicode="&#x2776;" 
d="M500 845q95 0 181.5 -37t148.5 -99.5t98.5 -148.5t36.5 -180q0 -95 -37 -181t-99 -148t-148 -99t-181 -37t-181 37t-148 99t-99 148t-37 181t37 181t99 148t148 99t181 37zM460 540v-424h109v525h-94l-134 -63l19 -85l98 47h2z" />
    <glyph glyph-name="uni2777" unicode="&#x2777;" 
d="M500 845q95 0 181.5 -37t148.5 -99.5t98.5 -148.5t36.5 -180q0 -95 -37 -181t-99 -148t-148 -99t-181 -37t-181 37t-148 99t-99 148t-37 181t37 181t99 148t148 99t181 37zM312 119h376v94h-214v1l49 38q78 67 116 119.5t38 114.5q0 70 -48.5 116.5t-135.5 46.5
q-102 0 -174 -58l33 -80q61 46 118 46q48 0 70.5 -23t22.5 -59q-1 -44 -40 -90t-145 -139l-66 -59v-68z" />
    <glyph glyph-name="uni2778" unicode="&#x2778;" 
d="M500 845q95 0 181.5 -37t148.5 -99.5t98.5 -148.5t36.5 -180q0 -95 -37 -181t-99 -148t-148 -99t-181 -37t-181 37t-148 99t-99 148t-37 181t37 181t99 148t148 99t181 37zM337 233l-24 -86q60 -38 158 -38q100 0 158 45t58 114q0 50 -33.5 84.5t-84.5 43.5v2
q99 33 99 121q0 55 -45.5 92.5t-128.5 37.5q-99 0 -165 -42l25 -82q54 33 115 33q41 0 62 -16.5t21 -41.5q0 -32 -30.5 -48t-70.5 -16h-50v-82h52q47 0 82 -20.5t35 -59.5q0 -31 -26.5 -52.5t-78.5 -21.5q-67 0 -128 33z" />
    <glyph glyph-name="uni2779" unicode="&#x2779;" 
d="M500 845q95 0 181.5 -37t148.5 -99.5t98.5 -148.5t36.5 -180q0 -95 -37 -181t-99 -148t-148 -99t-181 -37t-181 37t-148 99t-99 148t-37 181t37 181t99 148t148 99t181 37zM524 116h109v127h67v87h-67v312h-139l-214 -323v-76h244v-127zM524 464v-134h-136v2l91 134
q25 44 46 89h3q-4 -64 -4 -91z" />
    <glyph glyph-name="uni277A" unicode="&#x277a;" 
d="M500 845q95 0 181.5 -37t148.5 -99.5t98.5 -148.5t36.5 -180q0 -95 -37 -181t-99 -148t-148 -99t-181 -37t-181 37t-148 99t-99 148t-37 181t37 181t99 148t148 99t181 37zM666 546v93h-291l-34 -269q37 5 76 5q153 0 153 -92q0 -41 -33 -63t-79 -22q-67 0 -123 28
l-22 -86q60 -31 149 -31q104 0 164 52t60 129q0 89 -61.5 129.5t-143.5 40.5q-19 0 -39 -3l13 89h211z" />
    <glyph glyph-name="uni277B" unicode="&#x277b;" 
d="M500 845q95 0 181.5 -37t148.5 -99.5t98.5 -148.5t36.5 -180q0 -95 -37 -181t-99 -148t-148 -99t-181 -37t-181 37t-148 99t-99 148t-37 181t37 181t99 148t148 99t181 37zM413 418h-1q14 65 67 103t146 38q14 0 21 -1v89q-9 1 -32 1q-70 0 -126 -18t-91.5 -47.5
t-58.5 -71t-32.5 -84.5t-9.5 -92q0 -100 52 -163t147 -63q87 0 144 55.5t57 133.5q0 72 -47.5 117.5t-119.5 45.5q-75 0 -116 -43zM412 309v3q0 35 28.5 51t57.5 16q39 0 61.5 -25t22.5 -62q0 -42 -23 -70.5t-59 -28.5q-45 0 -66.5 34t-21.5 82z" />
    <glyph glyph-name="uni277C" unicode="&#x277c;" 
d="M500 845q95 0 181.5 -37t148.5 -99.5t98.5 -148.5t36.5 -180q0 -95 -37 -181t-99 -148t-148 -99t-181 -37t-181 37t-148 99t-99 148t-37 181t37 181t99 148t148 99t181 37zM700 639h-374v-94h253v-1l-227 -428h121l227 450v73z" />
    <glyph glyph-name="uni277D" unicode="&#x277d;" 
d="M500 845q95 0 181.5 -37t148.5 -99.5t98.5 -148.5t36.5 -180q0 -95 -37 -181t-99 -148t-148 -99t-181 -37t-181 37t-148 99t-99 148t-37 181t37 181t99 148t148 99t181 37zM600 397v2q79 37 79 116q0 54 -44.5 94t-130.5 40q-82 0 -134.5 -41.5t-52.5 -105.5
q0 -77 80 -115v-2q-98 -40 -98 -131q0 -60 52 -102.5t146 -42.5q90 0 147 43.5t57 114.5q0 48 -28 81.5t-73 48.5zM501 572q38 0 56 -21.5t18 -47.5q0 -27 -18 -46.5t-45 -24.5q-85 20 -85 74q0 27 20 46.5t54 19.5zM501 187q-38 0 -61.5 23.5t-23.5 55.5q0 30 19.5 52
t54.5 29q96 -22 96 -89q0 -29 -23 -50t-62 -21z" />
    <glyph glyph-name="uni277E" unicode="&#x277e;" 
d="M500 845q95 0 181.5 -37t148.5 -99.5t98.5 -148.5t36.5 -180q0 -95 -37 -181t-99 -148t-148 -99t-181 -37t-181 37t-148 99t-99 148t-37 181t37 181t99 148t148 99t181 37zM354 200v-89q9 -1 32 -1q70 0 126 18t91.5 47.5t58.5 71t32.5 84.5t9.5 92q0 100 -52 163
t-147 63q-87 0 -144 -55.5t-57 -133.5q0 -72 47.5 -117.5t119.5 -45.5q75 0 116 43h1q-14 -65 -67 -103t-146 -38q-14 0 -21 1zM588 449v-3q0 -35 -28.5 -51t-57.5 -16q-39 0 -61.5 25t-22.5 62q0 42 23 70.5t59 28.5q46 0 67 -35t21 -81z" />
    <glyph glyph-name="uni277F" unicode="&#x277f;" 
d="M500 845q95 0 181.5 -37t148.5 -99.5t98.5 -148.5t36.5 -180q0 -95 -37 -181t-99 -148t-148 -99t-181 -37t-181 37t-148 99t-99 148t-37 181t37 181t99 148t148 99t181 37zM292 519v-380h94v482h-75l-111 -61l23 -76l66 35h3zM643 138q72 0 116 62.5t44 183.5
q0 111 -39.5 174.5t-111.5 63.5q-74 0 -118 -65t-44 -179q1 -110 41.5 -175t111.5 -65zM648 218h-1q-31 0 -47.5 42.5t-16.5 120.5q0 75 18 118t47 43q60 0 60 -161q0 -163 -60 -163z" />
    <glyph glyph-name="uni3251" unicode="&#x3251;" 
d="M965 380q0 -95 -37 -181.5t-99.5 -148.5t-148.5 -98.5t-180 -36.5q-95 0 -181 37t-148 99t-99 148t-37 181t37 181t99 148t148 99t181 37t181 -37t148 -99t99 -148t37 -181zM500 814q-181 0 -307.5 -127.5t-126.5 -306.5q0 -180 127 -307t307 -127t307 127t127 307
t-127 307t-307 127zM468 144h-248v40l43 54q38 47 55.5 70.5t40.5 58.5t31.5 63.5t8.5 56.5q0 85 -75 85q-36 0 -77 -28l-13 45q44 34 100 34q65 0 95 -39t30 -92q0 -45 -21.5 -92.5t-45.5 -79t-72 -86.5l-31 -37v-2h179v-51zM667 139v423h-1l-77 -43l-12 47l96 55h53v-482
h-59z" />
    <glyph glyph-name="uni3252" unicode="&#x3252;" 
d="M965 380q0 -95 -37 -181.5t-99.5 -148.5t-148.5 -98.5t-180 -36.5q-95 0 -181 37t-148 99t-99 148t-37 181t37 181t99 148t148 99t181 37t181 -37t148 -99t99 -148t37 -181zM500 814q-181 0 -307.5 -127.5t-126.5 -306.5q0 -180 127 -307t307 -127t307 127t127 307
t-127 307t-307 127zM467 144h-247v40l43 54q37 46 55.5 70.5t40.5 59t31 62.5t9 57q0 85 -76 85q-34 0 -77 -28l-13 45q46 34 101 34q65 0 94.5 -39t29.5 -92q0 -45 -21 -92t-45.5 -79t-71.5 -87l-32 -37v-2h179v-51zM794 144h-247v40l43 54q37 46 55.5 70.5t40.5 59
t31 62.5t9 57q0 85 -75 85q-36 0 -77 -28l-13 45q44 34 100 34q66 0 95 -39t29 -92q0 -45 -21.5 -92.5t-45 -79t-70.5 -86.5l-32 -37v-2h178v-51z" />
    <glyph glyph-name="uni3253" unicode="&#x3253;" 
d="M965 380q0 -95 -37 -181.5t-99.5 -148.5t-148.5 -98.5t-180 -36.5q-95 0 -181 37t-148 99t-99 148t-37 181t37 181t99 148t148 99t181 37t181 -37t148 -99t99 -148t37 -181zM500 814q-181 0 -307.5 -127.5t-126.5 -306.5q0 -180 127 -307t307 -127t307 127t127 307
t-127 307t-307 127zM467 144h-247v40l43 54q37 46 55.5 70.5t40.5 59t31 62.5t9 57q0 85 -76 85q-34 0 -77 -28l-13 45q46 34 101 34q65 0 94.5 -39t29.5 -92q0 -45 -21 -92t-45.5 -79t-71.5 -87l-32 -37v-2h179v-51zM539 161l13 47q36 -21 83 -21q51 0 75.5 26.5t24.5 63.5
q0 95 -137 95v46h20q37 1 69.5 22t32.5 62q0 32 -20 51.5t-57 19.5q-36 0 -73 -23l-12 44q41 29 98 29q60 0 91.5 -32t31.5 -79q0 -37 -21 -67t-58 -43v-1q42 -11 68.5 -43t26.5 -81q0 -57 -41.5 -98.5t-117.5 -41.5q-60 0 -97 24z" />
    <glyph glyph-name="uni3254" unicode="&#x3254;" 
d="M965 380q0 -95 -37 -181.5t-99.5 -148.5t-148.5 -98.5t-180 -36.5q-95 0 -181 37t-148 99t-99 148t-37 181t37 181t99 148t148 99t181 37t181 -37t148 -99t99 -148t37 -181zM500 814q-181 0 -307.5 -127.5t-126.5 -306.5q0 -180 127 -307t307 -127t307 127t127 307
t-127 307t-307 127zM753 139h-53v127h-186v41l182 314h57v-307h55v-48h-55v-127zM569 314h131v162q0 31 4 79h-3q-22 -49 -36 -72l-96 -168v-1zM468 144h-248v40l43 54q38 47 55.5 70.5t40.5 58.5t31.5 63.5t8.5 56.5q0 85 -75 85q-36 0 -77 -28l-13 45q44 34 100 34
q65 0 95 -39t30 -92q0 -45 -21.5 -92.5t-45.5 -79t-72 -86.5l-31 -37v-2h179v-51z" />
    <glyph glyph-name="uni3255" unicode="&#x3255;" 
d="M965 380q0 -95 -37 -181.5t-99.5 -148.5t-148.5 -98.5t-180 -36.5q-95 0 -181 37t-148 99t-99 148t-37 181t37 181t99 148t148 99t181 37t181 -37t148 -99t99 -148t37 -181zM500 814q-181 0 -307.5 -127.5t-126.5 -306.5q0 -180 127 -307t307 -127t307 127t127 307
t-127 307t-307 127zM468 144h-248v40l43 54q38 47 55.5 70.5t40.5 58.5t31.5 63.5t8.5 56.5q0 85 -75 85q-36 0 -77 -28l-13 45q44 34 100 34q65 0 95 -39t30 -92q0 -45 -21.5 -92.5t-45.5 -79t-72 -86.5l-31 -37v-2h179v-51zM782 616v-51h-141l-18 -124q7 1 24 1
q51 0 94.5 -37t43.5 -106q0 -70 -43.5 -116t-110.5 -46q-55 0 -91 23l13 47q38 -19 76 -19q43 0 70 27.5t27 73.5q0 59 -34.5 83.5t-80.5 24.5q-29 0 -44 -3l28 222h187z" />
    <glyph glyph-name="uni3256" unicode="&#x3256;" 
d="M767 623v-52q-145 0 -169 -173h2q34 44 87 44q52 0 84 -40t32 -101q0 -66 -37.5 -115t-100.5 -49q-59 0 -94 52t-35 142q0 54 13.5 104t40 93t72.5 69t105 26zM746 295q0 49 -20 76t-54 27q-14 0 -29 -4t-31.5 -24t-16.5 -53q0 -65 20 -100.5t56 -35.5q35 0 55 31.5
t20 82.5zM468 144h-248v40l43 54q38 47 55.5 70.5t40.5 58.5t31.5 63.5t8.5 56.5q0 85 -75 85q-36 0 -77 -28l-13 45q44 34 100 34q65 0 95 -39t30 -92q0 -45 -21.5 -92.5t-45.5 -79t-72 -86.5l-31 -37v-2h179v-51zM965 380q0 -95 -37 -181.5t-99.5 -148.5t-148.5 -98.5
t-180 -36.5q-95 0 -181 37t-148 99t-99 148t-37 181t37 181t99 148t148 99t181 37t181 -37t148 -99t99 -148t37 -181zM500 814q-181 0 -307.5 -127.5t-126.5 -306.5q0 -180 127 -307t307 -127t307 127t127 307t-127 307t-307 127z" />
    <glyph glyph-name="uni3257" unicode="&#x3257;" 
d="M965 380q0 -95 -37 -181.5t-99.5 -148.5t-148.5 -98.5t-180 -36.5q-95 0 -181 37t-148 99t-99 148t-37 181t37 181t99 148t148 99t181 37t181 -37t148 -99t99 -148t37 -181zM500 814q-181 0 -307.5 -127.5t-126.5 -306.5q0 -180 127 -307t307 -127t307 127t127 307
t-127 307t-307 127zM467 144h-247v40l43 54q37 46 55.5 70.5t40.5 59t31 62.5t9 57q0 85 -76 85q-34 0 -77 -28l-13 45q46 34 101 34q65 0 94.5 -39t29.5 -92q0 -45 -21 -92t-45.5 -79t-71.5 -87l-32 -37v-2h179v-51zM545 616h249v-40l-171 -437h-55l166 424v2h-189v51z" />
    <glyph glyph-name="uni3258" unicode="&#x3258;" 
d="M720 399v-2q89 -42 89 -126q0 -60 -42 -97t-101 -37q-61 0 -100.5 35t-39.5 90q0 84 87 132v2q-71 37 -71 105q0 54 38 87.5t94 33.5q52 0 86.5 -32t34.5 -81q0 -71 -75 -110zM672 581q-38 0 -56.5 -22.5t-18.5 -53.5q0 -64 81 -92q64 30 64 90q0 33 -17.5 55.5
t-52.5 22.5zM668 179q42 0 63.5 25t21.5 64q0 73 -95 108q-34 -15 -55 -43.5t-21 -63.5q0 -39 22.5 -64.5t63.5 -25.5zM965 380q0 -95 -37 -181.5t-99.5 -148.5t-148.5 -98.5t-180 -36.5q-95 0 -181 37t-148 99t-99 148t-37 181t37 181t99 148t148 99t181 37t181 -37
t148 -99t99 -148t37 -181zM500 814q-181 0 -307.5 -127.5t-126.5 -306.5q0 -180 127 -307t307 -127t307 127t127 307t-127 307t-307 127zM467 144h-247v40l43 54q37 46 55.5 70.5t40.5 59t31 62.5t9 57q0 85 -76 85q-34 0 -77 -28l-13 45q46 34 101 34q65 0 94.5 -39
t29.5 -92q0 -45 -21 -92t-45.5 -79t-71.5 -87l-32 -37v-2h179v-51z" />
    <glyph glyph-name="uni3259" unicode="&#x3259;" 
d="M747 362h-2q-34 -44 -87 -44q-52 0 -84 40t-32 101q0 66 37.5 115t100.5 49q59 0 94 -52t35 -142q0 -52 -12.5 -101t-38.5 -93t-72.5 -71t-107.5 -27v52q144 0 169 173zM600 465q0 -49 20 -76t53 -27q31 0 54.5 20.5t23.5 60.5q0 65 -20.5 100.5t-56.5 35.5
q-33 0 -53.5 -30.5t-20.5 -83.5zM468 144h-248v40l43 54q38 47 55.5 70.5t40.5 58.5t31.5 63.5t8.5 56.5q0 85 -75 85q-36 0 -77 -28l-13 45q44 34 100 34q65 0 95 -39t30 -92q0 -45 -21.5 -92.5t-45.5 -79t-72 -86.5l-31 -37v-2h179v-51zM965 380q0 -95 -37 -181.5
t-99.5 -148.5t-148.5 -98.5t-180 -36.5q-95 0 -181 37t-148 99t-99 148t-37 181t37 181t99 148t148 99t181 37t181 -37t148 -99t99 -148t37 -181zM500 814q-181 0 -307.5 -127.5t-126.5 -306.5q0 -180 127 -307t307 -127t307 127t127 307t-127 307t-307 127z" />
    <glyph glyph-name="uni325A" unicode="&#x325a;" 
d="M965 380q0 -95 -37 -181.5t-99.5 -148.5t-148.5 -98.5t-180 -36.5q-95 0 -181 37t-148 99t-99 148t-37 181t37 181t99 148t148 99t181 37t181 -37t148 -99t99 -148t37 -181zM500 814q-181 0 -307.5 -127.5t-126.5 -306.5q0 -180 127 -307t307 -127t307 127t127 307
t-127 307t-307 127zM672 137q-47 0 -78.5 37.5t-43.5 89.5t-12 114q0 115 38 180t102 65q66 0 98.5 -65t32.5 -174q0 -124 -38.5 -185.5t-98.5 -61.5zM598 381v-7q0 -90 19.5 -138.5t56.5 -48.5h1q74 0 74 194q0 192 -74 192q-37 0 -57 -51t-20 -141zM217 161l12 47
q34 -21 81 -21q49 0 72.5 26.5t23.5 63.5q0 95 -132 95v46q117 0 117 84q0 32 -19 51.5t-54 19.5q-38 0 -70 -23l-13 44q41 29 96 29q58 0 88.5 -32.5t30.5 -78.5q0 -37 -20 -67t-57 -43v-1q41 -11 67 -43t26 -81q0 -56 -41 -98t-114 -42q-59 0 -94 24z" />
    <glyph glyph-name="uni325B" unicode="&#x325b;" 
d="M965 380q0 -95 -37 -181.5t-99.5 -148.5t-148.5 -98.5t-180 -36.5q-95 0 -181 37t-148 99t-99 148t-37 181t37 181t99 148t148 99t181 37t181 -37t148 -99t99 -148t37 -181zM500 814q-181 0 -307.5 -127.5t-126.5 -306.5q0 -180 127 -307t307 -127t307 127t127 307
t-127 307t-307 127zM220 161l12 47q34 -21 81 -21q49 0 73 26.5t24 63.5q-1 47 -33.5 71t-80.5 24h-19v46q117 0 117 84q0 32 -19 51.5t-55 19.5t-70 -23l-11 44q39 29 95 29q59 0 89.5 -32t30.5 -79q0 -37 -20.5 -67t-57.5 -43v-1q41 -11 67 -43t26 -81q0 -56 -40.5 -98
t-113.5 -42q-58 0 -95 24zM667 139v423h-1l-77 -43l-12 47l96 55h53v-482h-59z" />
    <glyph glyph-name="uni325C" unicode="&#x325c;" 
d="M965 380q0 -95 -37 -181.5t-99.5 -148.5t-148.5 -98.5t-180 -36.5q-95 0 -181 37t-148 99t-99 148t-37 181t37 181t99 148t148 99t181 37t181 -37t148 -99t99 -148t37 -181zM500 814q-181 0 -307.5 -127.5t-126.5 -306.5q0 -180 127 -307t307 -127t307 127t127 307
t-127 307t-307 127zM217 161l12 47q34 -21 81 -21q49 0 72.5 26.5t23.5 63.5q0 95 -132 95v46q117 0 117 84q0 32 -19 51.5t-54 19.5q-38 0 -70 -23l-13 44q41 29 96 29q58 0 88.5 -32.5t30.5 -78.5q0 -37 -20 -67t-57 -43v-1q41 -11 67 -43t26 -81q0 -56 -41 -98t-114 -42
q-59 0 -94 24zM789 144h-247v40l43 54q50 64 72 93.5t43 74t21 81.5q0 85 -76 85q-38 0 -76 -28l-13 45q44 34 100 34q65 0 94.5 -39t29.5 -92q0 -45 -21 -92t-45.5 -79t-71.5 -87l-32 -37v-2h179v-51z" />
    <glyph glyph-name="uni325D" unicode="&#x325d;" 
d="M965 380q0 -95 -37 -181.5t-99.5 -148.5t-148.5 -98.5t-180 -36.5q-95 0 -181 37t-148 99t-99 148t-37 181t37 181t99 148t148 99t181 37t181 -37t148 -99t99 -148t37 -181zM500 814q-181 0 -307.5 -127.5t-126.5 -306.5q0 -180 127 -307t307 -127t307 127t127 307
t-127 307t-307 127zM217 161l12 47q34 -21 81 -21q49 0 72.5 26.5t23.5 63.5q0 95 -132 95v46q117 0 117 84q0 32 -19 51.5t-54 19.5q-38 0 -70 -23l-13 44q41 29 96 29q58 0 88.5 -32.5t30.5 -78.5q0 -37 -20 -67t-57 -43v-1q41 -11 67 -43t26 -81q0 -56 -41 -98t-114 -42
q-59 0 -94 24zM533 161l13 47q36 -21 84 -21q50 0 74.5 25.5t24.5 62.5q0 28 -11 47.5t-24.5 29t-36 14.5t-34.5 5.5t-30 0.5v46q39 0 65 9t37 23.5t15 26.5t4 25q0 32 -19.5 51.5t-56.5 19.5q-38 0 -73 -23l-12 44q41 29 98 29q60 0 91.5 -32t31.5 -79q0 -37 -21 -67
t-58 -43v-1q42 -11 68 -43t26 -81q0 -56 -41.5 -98t-116.5 -42q-59 0 -98 24z" />
    <glyph glyph-name="uni325E" unicode="&#x325e;" 
d="M965 380q0 -95 -37 -181.5t-99.5 -148.5t-148.5 -98.5t-180 -36.5q-95 0 -181 37t-148 99t-99 148t-37 181t37 181t99 148t148 99t181 37t181 -37t148 -99t99 -148t37 -181zM500 814q-181 0 -307.5 -127.5t-126.5 -306.5q0 -180 127 -307t307 -127t307 127t127 307
t-127 307t-307 127zM755 139h-54v127h-185v41l182 314h57v-307h55v-48h-55v-127zM571 314h130v162q0 39 5 79h-3q-22 -49 -36 -72l-96 -168v-1zM215 161l12 47q34 -21 81 -21q49 0 72.5 26.5t23.5 63.5q0 95 -132 95v46q117 0 117 84q0 32 -19 51.5t-54 19.5q-38 0 -70 -23
l-13 44q41 29 96 29q58 0 88.5 -32.5t30.5 -78.5q0 -37 -20 -67t-57 -43v-1q41 -11 67 -43t26 -81q0 -56 -41 -98t-114 -42q-57 0 -94 24z" />
    <glyph glyph-name="uni325F" unicode="&#x325f;" 
d="M965 380q0 -95 -37 -181.5t-99.5 -148.5t-148.5 -98.5t-180 -36.5q-95 0 -181 37t-148 99t-99 148t-37 181t37 181t99 148t148 99t181 37t181 -37t148 -99t99 -148t37 -181zM500 814q-181 0 -307.5 -127.5t-126.5 -306.5q0 -180 127 -307t307 -127t307 127t127 307
t-127 307t-307 127zM211 161l12 47q34 -21 81 -21q48 0 72 25.5t24 62.5q0 34 -14 55.5t-39 29.5t-40.5 10t-37.5 2v46q37 0 62.5 9t36 24.5t14 27t3.5 23.5q0 32 -19 51.5t-54 19.5q-37 0 -71 -23l-11 44q39 29 95 29q59 0 89.5 -32t30.5 -79q0 -37 -20.5 -67t-57.5 -43v-1
q41 -11 67 -43t26 -81q0 -56 -40.5 -98t-113.5 -42q-60 0 -95 24zM782 616v-51h-141l-18 -124q7 1 24 1q51 0 94.5 -37t43.5 -106q0 -70 -43.5 -116t-110.5 -46q-55 0 -91 23l13 47q38 -19 76 -19q43 0 70 27.5t27 73.5q0 59 -34.5 83.5t-80.5 24.5q-29 0 -44 -3l28 222h187
z" />
    <glyph glyph-name="uni32B1" unicode="&#x32b1;" 
d="M965 380q0 -95 -37 -181.5t-99.5 -148.5t-148.5 -98.5t-180 -36.5q-95 0 -181 37t-148 99t-99 148t-37 181t37 181t99 148t148 99t181 37t181 -37t148 -99t99 -148t37 -181zM500 814q-181 0 -307.5 -127.5t-126.5 -306.5q0 -180 127 -307t307 -127t307 127t127 307
t-127 307t-307 127zM770 623v-52q-44 0 -77 -16t-51.5 -44t-28 -55t-13.5 -58h2q36 44 88 44q51 0 83 -40t32 -101q0 -66 -37.5 -115t-100.5 -49q-59 0 -93.5 52t-34.5 142q0 54 13 103.5t39 93t72.5 69.5t106.5 26zM748 295q0 49 -20 76t-54 27q-30 0 -53.5 -21t-23.5 -60
q0 -65 20 -100.5t56 -35.5q35 0 55 31.5t20 82.5zM203 161l12 47q34 -21 81 -21q48 0 72 25.5t24 62.5q0 34 -14 55.5t-39 29.5t-40.5 10t-37.5 2v46q37 0 62.5 9t36 24.5t14 27t3.5 23.5q0 32 -19 51.5t-54 19.5q-37 0 -71 -23l-11 44q39 29 95 29q59 0 89.5 -32t30.5 -79
q0 -37 -20.5 -67t-57.5 -43v-1q41 -11 67 -43t26 -81q0 -56 -40.5 -98t-113.5 -42q-60 0 -95 24z" />
    <glyph glyph-name="uni32B2" unicode="&#x32b2;" 
d="M965 380q0 -95 -37 -181.5t-99.5 -148.5t-148.5 -98.5t-180 -36.5q-95 0 -181 37t-148 99t-99 148t-37 181t37 181t99 148t148 99t181 37t181 -37t148 -99t99 -148t37 -181zM500 814q-181 0 -307.5 -127.5t-126.5 -306.5q0 -180 127 -307t307 -127t307 127t127 307
t-127 307t-307 127zM211 161l12 47q34 -21 81 -21q48 0 72 25.5t24 62.5q0 34 -14 55.5t-39 29.5t-40.5 10t-37.5 2v46q37 0 62.5 9t36 24.5t14 27t3.5 23.5q0 32 -19 51.5t-54 19.5q-37 0 -71 -23l-11 44q39 29 95 29q59 0 89.5 -32t30.5 -79q0 -37 -20.5 -67t-57.5 -43v-1
q41 -11 67 -43t26 -81q0 -56 -40.5 -98t-113.5 -42q-60 0 -95 24zM545 616h249v-40l-171 -437h-55l166 424v2h-189v51z" />
    <glyph glyph-name="uni32B3" unicode="&#x32b3;" 
d="M616 394v2q-72 37 -72 105q0 54 38 87.5t94 33.5q54 0 87.5 -32.5t33.5 -80.5q0 -71 -74 -110v-2q88 -42 88 -126q0 -60 -41.5 -97t-100.5 -37q-61 0 -101 35t-40 90q0 84 88 132zM674 581q-37 0 -56 -22.5t-19 -53.5q0 -64 82 -92q63 30 63 90q0 33 -17 55.5t-53 22.5z
M670 179q42 0 64 25t22 64q0 72 -95 108q-77 -35 -77 -107q0 -39 22.5 -64.5t63.5 -25.5zM965 380q0 -95 -37 -181.5t-99.5 -148.5t-148.5 -98.5t-180 -36.5q-95 0 -181 37t-148 99t-99 148t-37 181t37 181t99 148t148 99t181 37t181 -37t148 -99t99 -148t37 -181zM500 814
q-181 0 -307.5 -127.5t-126.5 -306.5q0 -180 127 -307t307 -127t307 127t127 307t-127 307t-307 127zM203 161l12 47q34 -21 81 -21q48 0 72 25.5t24 62.5q0 34 -14 55.5t-39 29.5t-40.5 10t-37.5 2v46q37 0 62.5 9t36 24.5t14 27t3.5 23.5q0 32 -19 51.5t-54 19.5
q-37 0 -71 -23l-11 44q39 29 95 29q59 0 89.5 -32t30.5 -79q0 -37 -20.5 -67t-57.5 -43v-1q41 -11 67 -43t26 -81q0 -56 -40.5 -98t-113.5 -42q-60 0 -95 24z" />
    <glyph glyph-name="uni32B4" unicode="&#x32b4;" 
d="M965 380q0 -95 -37 -181.5t-99.5 -148.5t-148.5 -98.5t-180 -36.5q-95 0 -181 37t-148 99t-99 148t-37 181t37 181t99 148t148 99t181 37t181 -37t148 -99t99 -148t37 -181zM500 814q-181 0 -307.5 -127.5t-126.5 -306.5q0 -180 127 -307t307 -127t307 127t127 307
t-127 307t-307 127zM747 362h-2q-34 -44 -87 -44q-52 0 -84 40t-32 101q0 66 37.5 115t100.5 49q59 0 94 -52t35 -142q0 -52 -12.5 -101t-38.5 -93t-72.5 -71t-107.5 -27v52q144 0 169 173zM600 465q0 -49 20 -76t53 -27q31 0 54.5 20.5t23.5 60.5q0 65 -20.5 100.5
t-56.5 35.5q-33 0 -53.5 -30.5t-20.5 -83.5zM367 402v-1q41 -11 67 -43t26 -81q0 -56 -40.5 -98t-113.5 -42q-60 0 -95 24l12 47q34 -21 81 -21q48 0 72 25.5t24 62.5q0 34 -14 55.5t-39 29.5t-40.5 10t-37.5 2v46q37 0 62.5 9t36 24.5t14 27t3.5 23.5q0 32 -19 51.5
t-54 19.5q-37 0 -71 -23l-11 44q39 29 95 29q59 0 89.5 -32t30.5 -79q0 -37 -20.5 -67t-57.5 -43z" />
    <glyph glyph-name="uni32B5" unicode="&#x32b5;" 
d="M965 380q0 -95 -37 -181.5t-99.5 -148.5t-148.5 -98.5t-180 -36.5q-95 0 -181 37t-148 99t-99 148t-37 181t37 181t99 148t148 99t181 37t181 -37t148 -99t99 -148t37 -181zM500 814q-181 0 -307.5 -127.5t-126.5 -306.5q0 -180 127 -307t307 -127t307 127t127 307
t-127 307t-307 127zM403 139h-53v127h-186v41l182 314h57v-307h56v-48h-56v-127zM219 314h131v162q0 31 4 79h-3q-22 -49 -36 -72l-96 -168v-1zM672 137q-45 0 -76.5 35.5t-44.5 88t-13 117.5q0 116 38.5 180.5t101.5 64.5q64 0 97.5 -64.5t33.5 -175.5q0 -122 -37.5 -184
t-99.5 -62zM675 187q74 0 74 194q0 192 -74 192q-19 0 -34.5 -14t-29 -61t-13.5 -123q0 -82 19 -135t58 -53z" />
    <glyph glyph-name="uni32B6" unicode="&#x32b6;" 
d="M965 380q0 -95 -37 -181.5t-99.5 -148.5t-148.5 -98.5t-180 -36.5q-95 0 -181 37t-148 99t-99 148t-37 181t37 181t99 148t148 99t181 37t181 -37t148 -99t99 -148t37 -181zM500 814q-181 0 -307.5 -127.5t-126.5 -306.5q0 -180 127 -307t307 -127t307 127t127 307
t-127 307t-307 127zM411 139h-53v127h-186v41l182 314h57v-307h56v-48h-56v-127zM227 314h131v162q0 31 4 79h-3q-22 -49 -36 -72l-96 -168v-1zM658 139v423h-1l-77 -43l-12 47l96 55h53v-482h-59z" />
    <glyph glyph-name="uni32B7" unicode="&#x32b7;" 
d="M965 380q0 -95 -37 -181.5t-99.5 -148.5t-148.5 -98.5t-180 -36.5q-95 0 -181 37t-148 99t-99 148t-37 181t37 181t99 148t148 99t181 37t181 -37t148 -99t99 -148t37 -181zM500 814q-181 0 -307.5 -127.5t-126.5 -306.5q0 -180 127 -307t307 -127t307 127t127 307
t-127 307t-307 127zM403 139h-53v127h-186v41l182 314h57v-307h56v-48h-56v-127zM219 314h131v162q0 31 4 79h-3q-22 -49 -36 -72l-96 -168v-1zM794 144h-247v40l43 54q37 46 55.5 70.5t40.5 59t31 62.5t9 57q0 85 -75 85q-36 0 -77 -28l-13 45q44 34 100 34q66 0 95 -39
t29 -92q0 -45 -21.5 -92.5t-45 -79t-70.5 -86.5l-32 -37v-2h178v-51z" />
    <glyph glyph-name="uni32B8" unicode="&#x32b8;" 
d="M965 380q0 -95 -37 -181.5t-99.5 -148.5t-148.5 -98.5t-180 -36.5q-95 0 -181 37t-148 99t-99 148t-37 181t37 181t99 148t148 99t181 37t181 -37t148 -99t99 -148t37 -181zM500 814q-181 0 -307.5 -127.5t-126.5 -306.5q0 -180 127 -307t307 -127t307 127t127 307
t-127 307t-307 127zM406 139h-54v127h-185v41l182 314h57v-307h55v-48h-55v-127zM222 314h130v162q0 39 5 79h-3q-22 -49 -36 -72l-96 -168v-1zM542 161l13 47q36 -21 83 -21q51 0 75.5 26.5t24.5 63.5q0 95 -137 95v46q39 0 65.5 9t37.5 24t15 26.5t4 24.5q0 32 -20 51.5
t-57 19.5q-38 0 -73 -23l-12 44q41 29 98 29q60 0 91.5 -32t31.5 -79q0 -37 -21 -67t-58 -43v-1q42 -11 68 -43t26 -81q0 -56 -41.5 -98t-116.5 -42q-60 0 -97 24z" />
    <glyph glyph-name="uni32B9" unicode="&#x32b9;" 
d="M965 380q0 -95 -37 -181.5t-99.5 -148.5t-148.5 -98.5t-180 -36.5q-95 0 -181 37t-148 99t-99 148t-37 181t37 181t99 148t148 99t181 37t181 -37t148 -99t99 -148t37 -181zM500 814q-181 0 -307.5 -127.5t-126.5 -306.5q0 -180 127 -307t307 -127t307 127t127 307
t-127 307t-307 127zM403 139h-53v127h-186v41l182 314h57v-307h56v-48h-56v-127zM219 314h131v162q0 31 4 79h-3q-22 -49 -36 -72l-96 -168v-1zM756 139h-54v127h-185v41l181 314h58v-307h55v-48h-55v-127zM571 314h131v162q0 31 4 79h-2q-18 -40 -36 -72l-97 -168v-1z" />
    <glyph glyph-name="uni32BA" unicode="&#x32ba;" 
d="M965 380q0 -95 -37 -181.5t-99.5 -148.5t-148.5 -98.5t-180 -36.5q-95 0 -181 37t-148 99t-99 148t-37 181t37 181t99 148t148 99t181 37t181 -37t148 -99t99 -148t37 -181zM500 814q-181 0 -307.5 -127.5t-126.5 -306.5q0 -180 127 -307t307 -127t307 127t127 307
t-127 307t-307 127zM411 139h-53v127h-186v41l182 314h57v-307h56v-48h-56v-127zM227 314h131v162q0 31 4 79h-3q-22 -49 -36 -72l-96 -168v-1zM777 616v-51h-142l-17 -124q7 1 24 1q53 0 95.5 -38t42.5 -105q0 -70 -43.5 -116t-111.5 -46q-54 0 -90 23l13 47q36 -19 76 -19
q43 0 69.5 27.5t26.5 73.5q0 59 -34.5 83.5t-80.5 24.5q-27 0 -44 -3l28 222h188z" />
    <glyph glyph-name="uni32BB" unicode="&#x32bb;" 
d="M965 380q0 -95 -37 -181.5t-99.5 -148.5t-148.5 -98.5t-180 -36.5q-95 0 -181 37t-148 99t-99 148t-37 181t37 181t99 148t148 99t181 37t181 -37t148 -99t99 -148t37 -181zM500 814q-181 0 -307.5 -127.5t-126.5 -306.5q0 -180 127 -307t307 -127t307 127t127 307
t-127 307t-307 127zM764 623v-52q-145 0 -169 -173h2q36 44 87 44q52 0 84 -40t32 -101q0 -66 -37.5 -115t-100.5 -49q-59 0 -94 52t-35 142q0 54 13.5 104t40 93t72.5 69t105 26zM743 295q0 49 -20 76t-54 27q-10 0 -20.5 -3t-24.5 -10.5t-23 -25t-9 -42.5q0 -65 20 -100.5
t56 -35.5q35 0 55 31.5t20 82.5zM403 139h-53v127h-186v41l182 314h57v-307h56v-48h-56v-127zM219 314h131v162q0 31 4 79h-3q-22 -49 -36 -72l-96 -168v-1z" />
    <glyph glyph-name="uni32BC" unicode="&#x32bc;" 
d="M965 380q0 -95 -37 -181.5t-99.5 -148.5t-148.5 -98.5t-180 -36.5q-95 0 -181 37t-148 99t-99 148t-37 181t37 181t99 148t148 99t181 37t181 -37t148 -99t99 -148t37 -181zM500 814q-181 0 -307.5 -127.5t-126.5 -306.5q0 -180 127 -307t307 -127t307 127t127 307
t-127 307t-307 127zM407 139h-53v127h-186v41l182 314h57v-307h55v-48h-55v-127zM223 314h131v162q0 47 4 79h-3q-22 -49 -36 -72l-96 -168v-1zM540 616h248v-40l-170 -437h-56l166 424v2h-188v51z" />
    <glyph glyph-name="uni32BD" unicode="&#x32bd;" 
d="M616 394v2q-72 37 -72 105q0 54 38 87.5t94 33.5q54 0 87.5 -32.5t33.5 -80.5q0 -71 -74 -110v-2q88 -42 88 -126q0 -60 -41.5 -97t-100.5 -37q-61 0 -101 35t-40 90q0 84 88 132zM674 581q-37 0 -56 -22.5t-19 -53.5q0 -64 82 -92q63 30 63 90q0 33 -17 55.5t-53 22.5z
M670 179q42 0 64 25t22 64q0 72 -95 108q-77 -35 -77 -107q0 -39 22.5 -64.5t63.5 -25.5zM965 380q0 -95 -37 -181.5t-99.5 -148.5t-148.5 -98.5t-180 -36.5q-95 0 -181 37t-148 99t-99 148t-37 181t37 181t99 148t148 99t181 37t181 -37t148 -99t99 -148t37 -181zM500 814
q-181 0 -307.5 -127.5t-126.5 -306.5q0 -180 127 -307t307 -127t307 127t127 307t-127 307t-307 127zM403 139h-53v127h-186v41l182 314h57v-307h56v-48h-56v-127zM219 314h131v162q0 31 4 79h-3q-22 -49 -36 -72l-96 -168v-1z" />
    </font>
</defs>
</svg>
